<svg xmlns="http://www.w3.org/2000/svg" viewBox="0 0 800 600">
  <defs>
    <linearGradient id="trendGradient" x1="0%" y1="0%" x2="100%" y2="100%">
      <stop offset="0%" style="stop-color:#667eea;stop-opacity:1" />
      <stop offset="100%" style="stop-color:#764ba2;stop-opacity:1" />
    </linearGradient>
    <linearGradient id="modernGradient" x1="0%" y1="0%" x2="100%" y2="0%">
      <stop offset="0%" style="stop-color:#f093fb;stop-opacity:1" />
      <stop offset="100%" style="stop-color:#f5576c;stop-opacity:1" />
    </linearGradient>
  </defs>
  
  <!-- Background -->
  <rect width="800" height="600" fill="url(#trendGradient)"/>
  
  <!-- Title -->
  <text x="400" y="50" text-anchor="middle" font-family="Arial, sans-serif" font-size="28" font-weight="bold" fill="white">2024 Backpack Design Trends</text>
  
  <!-- Central Backpack Design -->
  <g transform="translate(350, 150)">
    <!-- Modern Backpack Silhouette -->
    <path d="M0 0 L100 0 L100 150 L80 170 L20 170 L0 150 Z" fill="#2c3e50" stroke="#34495e" stroke-width="2"/>
    <rect x="10" y="10" width="80" height="20" fill="#e74c3c" rx="5"/>
    <rect x="20" y="40" width="60" height="80" fill="#3498db" rx="8"/>
    <circle cx="85" cy="25" r="8" fill="#f39c12"/>
    <rect x="25" y="50" width="50" height="5" fill="#ecf0f1" rx="2"/>
    <rect x="25" y="65" width="50" height="5" fill="#ecf0f1" rx="2"/>
  </g>
  
  <!-- Trend Elements -->
  <!-- Sustainability Icon -->
  <g transform="translate(100, 200)">
    <circle cx="0" cy="0" r="40" fill="#27ae60" opacity="0.8"/>
    <path d="M-15 -10 Q0 -25 15 -10 Q0 5 -15 -10" fill="white"/>
    <text x="0" y="60" text-anchor="middle" font-family="Arial, sans-serif" font-size="14" fill="white">Eco-Friendly</text>
  </g>
  
  <!-- Tech Integration -->
  <g transform="translate(650, 200)">
    <circle cx="0" cy="0" r="40" fill="#3498db" opacity="0.8"/>
    <rect x="-15" y="-10" width="30" height="20" fill="white" rx="3"/>
    <circle cx="-8" cy="-3" r="2" fill="#3498db"/>
    <circle cx="0" cy="-3" r="2" fill="#3498db"/>
    <circle cx="8" cy="-3" r="2" fill="#3498db"/>
    <text x="0" y="60" text-anchor="middle" font-family="Arial, sans-serif" font-size="14" fill="white">Smart Tech</text>
  </g>
  
  <!-- Minimalist Design -->
  <g transform="translate(150, 400)">
    <circle cx="0" cy="0" r="40" fill="#95a5a6" opacity="0.8"/>
    <rect x="-10" y="-15" width="20" height="30" fill="white" rx="2"/>
    <line x1="-5" y1="-8" x2="5" y2="-8" stroke="#95a5a6" stroke-width="2"/>
    <text x="0" y="60" text-anchor="middle" font-family="Arial, sans-serif" font-size="14" fill="white">Minimalist</text>
  </g>
  
  <!-- Modular Design -->
  <g transform="translate(600, 400)">
    <circle cx="0" cy="0" r="40" fill="#e67e22" opacity="0.8"/>
    <rect x="-12" y="-8" width="8" height="16" fill="white"/>
    <rect x="-2" y="-8" width="8" height="16" fill="white"/>
    <rect x="8" y="-8" width="8" height="16" fill="white"/>
    <text x="0" y="60" text-anchor="middle" font-family="Arial, sans-serif" font-size="14" fill="white">Modular</text>
  </g>
  
  <!-- Connecting Lines -->
  <line x1="140" y1="240" x2="350" y2="200" stroke="white" stroke-width="2" opacity="0.6"/>
  <line x1="610" y1="240" x2="450" y2="200" stroke="white" stroke-width="2" opacity="0.6"/>
  <line x1="190" y1="360" x2="370" y2="320" stroke="white" stroke-width="2" opacity="0.6"/>
  <line x1="560" y1="360" x2="430" y2="320" stroke="white" stroke-width="2" opacity="0.6"/>
  
  <!-- Innovation Badge -->
  <g transform="translate(400, 500)">
    <circle cx="0" cy="0" r="50" fill="url(#modernGradient)" opacity="0.9"/>
    <text x="0" y="-5" text-anchor="middle" font-family="Arial, sans-serif" font-size="16" font-weight="bold" fill="white">2024</text>
    <text x="0" y="15" text-anchor="middle" font-family="Arial, sans-serif" font-size="12" fill="white">Innovation</text>
  </g>
</svg>