<svg width="80" height="80" viewBox="0 0 80 80" fill="none" xmlns="http://www.w3.org/2000/svg">
  <!-- Business backpack body -->
  <rect x="20" y="25" width="40" height="35" rx="3" fill="#1f2937" stroke="#374151" stroke-width="2"/>
  
  <!-- Laptop compartment -->
  <rect x="23" y="28" width="34" height="20" rx="2" fill="#374151" stroke="#4b5563" stroke-width="1"/>
  
  <!-- Laptop screen -->
  <rect x="26" y="31" width="28" height="14" rx="1" fill="#6b7280"/>
  <rect x="28" y="33" width="24" height="10" fill="#000000"/>
  
  <!-- Front pocket -->
  <rect x="25" y="50" width="30" height="8" rx="2" fill="#374151" stroke="#4b5563" stroke-width="1"/>
  
  <!-- Zipper -->
  <line x1="27" y1="54" x2="53" y2="54" stroke="#9ca3af" stroke-width="1.5"/>
  <circle cx="52" cy="54" r="1.5" fill="#9ca3af"/>
  
  <!-- Handle -->
  <path d="M35 25 Q35 20 40 20 Q45 20 45 25" stroke="#374151" stroke-width="3" fill="none"/>
  
  <!-- Shoulder straps -->
  <path d="M25 30 Q15 25 18 15 Q22 12 25 18" stroke="#374151" stroke-width="2" fill="none"/>
  <path d="M55 30 Q65 25 62 15 Q58 12 55 18" stroke="#374151" stroke-width="2" fill="none"/>
  
  <!-- Business card holder -->
  <rect x="45" y="35" width="8" height="5" rx="1" fill="#6b7280" stroke="#4b5563" stroke-width="0.5"/>
  
  <!-- Pen holder -->
  <circle cx="30" cy="37" r="1.5" fill="#ef4444"/>
  <circle cx="33" cy="37" r="1.5" fill="#3b82f6"/>
</svg>