<svg xmlns="http://www.w3.org/2000/svg" viewBox="0 0 300 350" width="300" height="350">
  <defs>
    <linearGradient id="businessGradient" x1="0%" y1="0%" x2="100%" y2="100%">
      <stop offset="0%" style="stop-color:#1a1a1a;stop-opacity:1" />
      <stop offset="50%" style="stop-color:#2c2c2c;stop-opacity:1" />
      <stop offset="100%" style="stop-color:#0d0d0d;stop-opacity:1" />
    </linearGradient>
  </defs>
  
  <!-- Main backpack body -->
  <rect x="80" y="60" width="140" height="220" rx="10" fill="url(#businessGradient)" stroke="#000" stroke-width="2"/>
  
  <!-- Laptop compartment -->
  <rect x="90" y="70" width="120" height="180" rx="5" fill="#333" stroke="#222" stroke-width="1"/>
  <rect x="95" y="75" width="110" height="3" fill="#666"/>
  
  <!-- Front organizer pocket -->
  <rect x="100" y="100" width="100" height="80" rx="5" fill="#2a2a2a" stroke="#111" stroke-width="1"/>
  
  <!-- Pen holders -->
  <circle cx="110" cy="120" r="3" fill="#444" stroke="#222" stroke-width="1"/>
  <circle cx="120" cy="120" r="3" fill="#444" stroke="#222" stroke-width="1"/>
  <circle cx="130" cy="120" r="3" fill="#444" stroke="#222" stroke-width="1"/>
  
  <!-- Business card pocket -->
  <rect x="110" y="140" width="60" height="20" rx="2" fill="#555" stroke="#333" stroke-width="1"/>
  
  <!-- Professional handles -->
  <rect x="130" y="45" width="40" height="8" rx="4" fill="#444" stroke="#222" stroke-width="1"/>
  
  <!-- Side compression straps -->
  <rect x="70" y="150" width="8" height="60" rx="2" fill="#333" stroke="#111" stroke-width="1"/>
  <rect x="222" y="150" width="8" height="60" rx="2" fill="#333" stroke="#111" stroke-width="1"/>
  
  <!-- Professional shoulder straps -->
  <path d="M70 100 Q50 90 40 110 L40 160 Q40 180 50 170 L70 160" fill="#444" stroke="#222" stroke-width="1"/>
  <path d="M230 100 Q250 90 260 110 L260 160 Q260 180 250 170 L230 160" fill="#444" stroke="#222" stroke-width="1"/>
  
  <!-- Strap padding -->
  <rect x="45" y="120" width="6" height="25" rx="3" fill="#666"/>
  <rect x="249" y="120" width="6" height="25" rx="3" fill="#666"/>
  
  <!-- Bottom feet -->
  <circle cx="90" cy="275" r="4" fill="#222"/>
  <circle cx="210" cy="275" r="4" fill="#222"/>
  
  <!-- Professional logo -->
  <rect x="140" y="200" width="20" height="20" rx="2" fill="#555" stroke="#333" stroke-width="1"/>
  <text x="150" y="213" font-family="Arial, sans-serif" font-size="6" text-anchor="middle" fill="#ccc">PRO</text>
</svg>