<svg width="60" height="60" viewBox="0 0 60 60" fill="none" xmlns="http://www.w3.org/2000/svg">
  <!-- Shoulder/back outline -->
  <path d="M15 20 Q20 15, 30 15 Q40 15, 45 20 L45 45 Q40 50, 30 50 Q20 50, 15 45 Z" fill="#fef3c7" stroke="#f59e0b" stroke-width="2"/>
  
  <!-- Padding layers -->
  <path d="M18 22 Q22 18, 30 18 Q38 18, 42 22 L42 42 Q38 46, 30 46 Q22 46, 18 42 Z" fill="#fde68a" stroke="#f59e0b" stroke-width="1"/>
  
  <!-- Comfort cushioning -->
  <ellipse cx="25" cy="28" rx="4" ry="6" fill="#fed7aa" stroke="#fb923c" stroke-width="1"/>
  <ellipse cx="35" cy="28" rx="4" ry="6" fill="#fed7aa" stroke="#fb923c" stroke-width="1"/>
  
  <!-- Air circulation holes -->
  <circle cx="22" cy="25" r="1.5" fill="#f97316"/>
  <circle cx="30" cy="23" r="1.5" fill="#f97316"/>
  <circle cx="38" cy="25" r="1.5" fill="#f97316"/>
  
  <circle cx="24" cy="35" r="1.5" fill="#f97316"/>
  <circle cx="30" cy="37" r="1.5" fill="#f97316"/>
  <circle cx="36" cy="35" r="1.5" fill="#f97316"/>
  
  <!-- Ergonomic curves -->
  <path d="M20 30 Q25 28, 30 30 Q35 28, 40 30" stroke="#ea580c" stroke-width="2" fill="none"/>
  <path d="M20 38 Q25 36, 30 38 Q35 36, 40 38" stroke="#ea580c" stroke-width="2" fill="none"/>
  
  <!-- Comfort rating stars -->
  <g transform="translate(25, 8)">
    <path d="M5 0 L6 3 L10 3 L7 5 L8 8 L5 6 L2 8 L3 5 L0 3 L4 3 Z" fill="#fbbf24"/>
  </g>
  
  <!-- Breathable mesh pattern -->
  <g opacity="0.3">
    <line x1="20" y1="32" x2="40" y2="32" stroke="#f97316" stroke-width="0.5"/>
    <line x1="20" y1="34" x2="40" y2="34" stroke="#f97316" stroke-width="0.5"/>
    <line x1="20" y1="36" x2="40" y2="36" stroke="#f97316" stroke-width="0.5"/>
    <line x1="22" y1="30" x2="22" y2="40" stroke="#f97316" stroke-width="0.5"/>
    <line x1="26" y1="30" x2="26" y2="40" stroke="#f97316" stroke-width="0.5"/>
    <line x1="30" y1="30" x2="30" y2="40" stroke="#f97316" stroke-width="0.5"/>
    <line x1="34" y1="30" x2="34" y2="40" stroke="#f97316" stroke-width="0.5"/>
    <line x1="38" y1="30" x2="38" y2="40" stroke="#f97316" stroke-width="0.5"/>
  </g>
</svg>