<svg xmlns="http://www.w3.org/2000/svg" viewBox="0 0 400 300">
  <defs>
    <linearGradient id="storyGrad" x1="0%" y1="0%" x2="100%" y2="100%">
      <stop offset="0%" style="stop-color:#3498db;stop-opacity:1" />
      <stop offset="100%" style="stop-color:#2980b9;stop-opacity:1" />
    </linearGradient>
  </defs>
  
  <!-- Background -->
  <rect width="400" height="300" fill="#f8f9fa"/>
  
  <!-- Timeline -->
  <g transform="translate(200,150)">
    <!-- Timeline line -->
    <line x1="-150" y1="0" x2="150" y2="0" stroke="#3498db" stroke-width="4"/>
    
    <!-- Timeline points -->
    <circle cx="-120" cy="0" r="8" fill="#e74c3c"/>
    <circle cx="-40" cy="0" r="8" fill="#f39c12"/>
    <circle cx="40" cy="0" r="8" fill="#2ecc71"/>
    <circle cx="120" cy="0" r="8" fill="#9b59b6"/>
    
    <!-- Year labels -->
    <text x="-120" y="-20" text-anchor="middle" font-family="Arial, sans-serif" font-size="12" font-weight="bold" fill="#2c3e50">2010</text>
    <text x="-40" y="-20" text-anchor="middle" font-family="Arial, sans-serif" font-size="12" font-weight="bold" fill="#2c3e50">2015</text>
    <text x="40" y="-20" text-anchor="middle" font-family="Arial, sans-serif" font-size="12" font-weight="bold" fill="#2c3e50">2020</text>
    <text x="120" y="-20" text-anchor="middle" font-family="Arial, sans-serif" font-size="12" font-weight="bold" fill="#2c3e50">2024</text>
    
    <!-- Milestone descriptions -->
    <text x="-120" y="25" text-anchor="middle" font-family="Arial, sans-serif" font-size="10" fill="#7f8c8d">Founded</text>
    <text x="-40" y="25" text-anchor="middle" font-family="Arial, sans-serif" font-size="10" fill="#7f8c8d">Expansion</text>
    <text x="40" y="25" text-anchor="middle" font-family="Arial, sans-serif" font-size="10" fill="#7f8c8d">Innovation</text>
    <text x="120" y="25" text-anchor="middle" font-family="Arial, sans-serif" font-size="10" fill="#7f8c8d">Global</text>
    
    <!-- Company building icon -->
    <g transform="translate(0,-80)">
      <rect x="-30" y="10" width="60" height="40" rx="3" fill="url(#storyGrad)"/>
      <polygon points="-35,10 0,-5 35,10" fill="#2c3e50"/>
      <rect x="-20" y="20" width="8" height="8" fill="white"/>
      <rect x="-5" y="20" width="8" height="8" fill="white"/>
      <rect x="10" y="20" width="8" height="8" fill="white"/>
      <rect x="-10" y="35" width="12" height="15" fill="#2c3e50"/>
    </g>
  </g>
  
  <!-- Title -->
  <text x="200" y="50" text-anchor="middle" font-family="Arial, sans-serif" font-size="24" font-weight="bold" fill="#2c3e50">Our Story</text>
  <text x="200" y="280" text-anchor="middle" font-family="Arial, sans-serif" font-size="16" fill="#7f8c8d">Building Excellence Since 2010</text>
</svg>