<svg xmlns="http://www.w3.org/2000/svg" viewBox="0 0 100 100" width="100" height="100">
  <defs>
    <linearGradient id="corpGrad" x1="0%" y1="0%" x2="100%" y2="100%">
      <stop offset="0%" style="stop-color:#4299e1;stop-opacity:1" />
      <stop offset="100%" style="stop-color:#2b6cb0;stop-opacity:1" />
    </linearGradient>
    <style>
      .building { fill: url(#corpGrad); stroke: #2c5282; stroke-width: 1; }
      .window { fill: #ffffff; opacity: 0.8; }
      .highlight { fill: #ffd700; }
      .icon-text { font-family: 'Arial', sans-serif; font-size: 8px; fill: #2c5282; font-weight: bold; }
    </style>
  </defs>
  
  <!-- Main Building -->
  <rect class="building" x="20" y="30" width="60" height="60" rx="3"/>
  
  <!-- Building Top -->
  <polygon class="building" points="20,30 50,15 80,30" />
  
  <!-- Windows Grid -->
  <rect class="window" x="25" y="35" width="6" height="6"/>
  <rect class="window" x="35" y="35" width="6" height="6"/>
  <rect class="window" x="45" y="35" width="6" height="6"/>
  <rect class="window" x="55" y="35" width="6" height="6"/>
  <rect class="window" x="65" y="35" width="6" height="6"/>
  
  <rect class="window" x="25" y="45" width="6" height="6"/>
  <rect class="window" x="35" y="45" width="6" height="6"/>
  <rect class="window" x="45" y="45" width="6" height="6"/>
  <rect class="window" x="55" y="45" width="6" height="6"/>
  <rect class="window" x="65" y="45" width="6" height="6"/>
  
  <rect class="window" x="25" y="55" width="6" height="6"/>
  <rect class="window" x="35" y="55" width="6" height="6"/>
  <rect class="window" x="45" y="55" width="6" height="6"/>
  <rect class="window" x="55" y="55" width="6" height="6"/>
  <rect class="window" x="65" y="55" width="6" height="6"/>
  
  <rect class="window" x="25" y="65" width="6" height="6"/>
  <rect class="window" x="35" y="65" width="6" height="6"/>
  <rect class="window" x="45" y="65" width="6" height="6"/>
  <rect class="window" x="55" y="65" width="6" height="6"/>
  <rect class="window" x="65" y="65" width="6" height="6"/>
  
  <!-- Entrance -->
  <rect class="building" x="45" y="75" width="10" height="15"/>
  
  <!-- Corporate Symbol -->
  <circle cx="50" cy="25" r="8" class="highlight"/>
  <text x="50" y="29" text-anchor="middle" class="icon-text">CORP</text>
  
  <!-- Side Buildings -->
  <rect class="building" x="5" y="50" width="12" height="40" rx="2"/>
  <rect class="building" x="83" y="45" width="12" height="45" rx="2"/>
  
  <!-- Side Building Windows -->
  <rect class="window" x="7" y="55" width="3" height="3"/>
  <rect class="window" x="11" y="55" width="3" height="3"/>
  <rect class="window" x="7" y="60" width="3" height="3"/>
  <rect class="window" x="11" y="60" width="3" height="3"/>
  <rect class="window" x="7" y="65" width="3" height="3"/>
  <rect class="window" x="11" y="65" width="3" height="3"/>
  
  <rect class="window" x="85" y="50" width="3" height="3"/>
  <rect class="window" x="89" y="50" width="3" height="3"/>
  <rect class="window" x="85" y="55" width="3" height="3"/>
  <rect class="window" x="89" y="55" width="3" height="3"/>
  <rect class="window" x="85" y="60" width="3" height="3"/>
  <rect class="window" x="89" y="60" width="3" height="3"/>
</svg>