<svg xmlns="http://www.w3.org/2000/svg" viewBox="0 0 100 100" width="100" height="100">
  <defs>
    <linearGradient id="customGradient" x1="0%" y1="0%" x2="100%" y2="100%">
      <stop offset="0%" style="stop-color:#8b5cf6;stop-opacity:1" />
      <stop offset="100%" style="stop-color:#7c3aed;stop-opacity:1" />
    </linearGradient>
  </defs>
  
  <!-- Palette base -->
  <ellipse cx="50" cy="50" rx="35" ry="30" fill="url(#customGradient)" stroke="#6d28d9" stroke-width="2"/>
  
  <!-- Thumb hole -->
  <ellipse cx="65" cy="60" rx="8" ry="6" fill="#fff" stroke="#6d28d9" stroke-width="1"/>
  
  <!-- Paint colors -->
  <circle cx="30" cy="35" r="5" fill="#ef4444" stroke="#dc2626" stroke-width="1"/>
  <circle cx="45" cy="30" r="5" fill="#f97316" stroke="#ea580c" stroke-width="1"/>
  <circle cx="60" cy="35" r="5" fill="#eab308" stroke="#ca8a04" stroke-width="1"/>
  <circle cx="70" cy="45" r="5" fill="#22c55e" stroke="#16a34a" stroke-width="1"/>
  <circle cx="65" cy="75" r="5" fill="#3b82f6" stroke="#2563eb" stroke-width="1"/>
  <circle cx="45" cy="70" r="5" fill="#a855f7" stroke="#9333ea" stroke-width="1"/>
  <circle cx="30" cy="65" r="5" fill="#ec4899" stroke="#db2777" stroke-width="1"/>
  <circle cx="25" cy="50" r="5" fill="#06b6d4" stroke="#0891b2" stroke-width="1"/>
  
  <!-- Paintbrush -->
  <rect x="75" y="15" width="3" height="25" fill="#92400e" stroke="#78350f" stroke-width="0.5"/>
  <path d="M76.5 40 L76.5 50 Q76.5 52 78.5 52 Q80.5 52 80.5 50 L80.5 48 Q78.5 46 76.5 48 Z" fill="#374151" stroke="#1f2937" stroke-width="0.5"/>
  <rect x="74" y="10" width="7" height="8" rx="1" fill="#fbbf24" stroke="#f59e0b" stroke-width="0.5"/>
  
  <!-- Paint drops -->
  <circle cx="85" cy="55" r="1.5" fill="#ef4444" opacity="0.8"/>
  <circle cx="82" cy="60" r="1" fill="#3b82f6" opacity="0.6"/>
  <circle cx="88" cy="62" r="1.2" fill="#22c55e" opacity="0.7"/>
  
  <!-- Design elements -->
  <path d="M15 20 Q20 15 25 20 Q20 25 15 20" fill="#fbbf24" opacity="0.6"/>
  <rect x="80" y="75" width="8" height="8" rx="1" fill="#ec4899" opacity="0.6" transform="rotate(45 84 79)"/>
  <polygon points="12,75 17,70 22,75 17,80" fill="#22c55e" opacity="0.6"/>
</svg>