<svg xmlns="http://www.w3.org/2000/svg" viewBox="0 0 800 600">
  <defs>
    <linearGradient id="customGradient" x1="0%" y1="0%" x2="100%" y2="100%">
      <stop offset="0%" style="stop-color:#ff9a9e;stop-opacity:1" />
      <stop offset="100%" style="stop-color:#fecfef;stop-opacity:1" />
    </linearGradient>
    <linearGradient id="processGradient" x1="0%" y1="0%" x2="100%" y2="0%">
      <stop offset="0%" style="stop-color:#667eea;stop-opacity:1" />
      <stop offset="100%" style="stop-color:#764ba2;stop-opacity:1" />
    </linearGradient>
  </defs>
  
  <!-- Background -->
  <rect width="800" height="600" fill="url(#customGradient)"/>
  
  <!-- Title -->
  <text x="400" y="50" text-anchor="middle" font-family="Arial, sans-serif" font-size="28" font-weight="bold" fill="#2c3e50">Custom Backpack Manufacturing</text>
  
  <!-- Process Flow -->
  <!-- Step 1: Design Consultation -->
  <g transform="translate(100, 120)">
    <circle cx="0" cy="0" r="40" fill="#3498db"/>
    <text x="0" y="-5" text-anchor="middle" font-family="Arial, sans-serif" font-size="24" font-weight="bold" fill="white">1</text>
    <text x="0" y="60" text-anchor="middle" font-family="Arial, sans-serif" font-size="14" font-weight="bold" fill="#2c3e50">Design</text>
    <text x="0" y="80" text-anchor="middle" font-family="Arial, sans-serif" font-size="14" fill="#2c3e50">Consultation</text>
    
    <!-- Design Elements -->
    <rect x="-25" y="-25" width="50" height="35" fill="none" stroke="white" stroke-width="2" rx="5"/>
    <line x1="-15" y1="-15" x2="15" y2="-15" stroke="white" stroke-width="2"/>
    <line x1="-15" y1="-5" x2="10" y2="-5" stroke="white" stroke-width="2"/>
  </g>
  
  <!-- Step 2: Material Selection -->
  <g transform="translate(300, 120)">
    <circle cx="0" cy="0" r="40" fill="#e74c3c"/>
    <text x="0" y="-5" text-anchor="middle" font-family="Arial, sans-serif" font-size="24" font-weight="bold" fill="white">2</text>
    <text x="0" y="60" text-anchor="middle" font-family="Arial, sans-serif" font-size="14" font-weight="bold" fill="#2c3e50">Material</text>
    <text x="0" y="80" text-anchor="middle" font-family="Arial, sans-serif" font-size="14" fill="#2c3e50">Selection</text>
    
    <!-- Material Swatches -->
    <rect x="-20" y="-15" width="12" height="12" fill="#2c3e50"/>
    <rect x="-5" y="-15" width="12" height="12" fill="#8e44ad"/>
    <rect x="10" y="-15" width="12" height="12" fill="#27ae60"/>
  </g>
  
  <!-- Step 3: Prototyping -->
  <g transform="translate(500, 120)">
    <circle cx="0" cy="0" r="40" fill="#f39c12"/>
    <text x="0" y="-5" text-anchor="middle" font-family="Arial, sans-serif" font-size="24" font-weight="bold" fill="white">3</text>
    <text x="0" y="60" text-anchor="middle" font-family="Arial, sans-serif" font-size="14" font-weight="bold" fill="#2c3e50">Prototype</text>
    <text x="0" y="80" text-anchor="middle" font-family="Arial, sans-serif" font-size="14" fill="#2c3e50">Development</text>
    
    <!-- Prototype Backpack -->
    <path d="M-15 -20 L15 -20 L15 10 L10 15 L-10 15 L-15 10 Z" fill="white" stroke="#f39c12" stroke-width="2"/>
    <rect x="-10" y="-15" width="20" height="4" fill="#f39c12"/>
  </g>
  
  <!-- Step 4: Production -->
  <g transform="translate(700, 120)">
    <circle cx="0" cy="0" r="40" fill="#27ae60"/>
    <text x="0" y="-5" text-anchor="middle" font-family="Arial, sans-serif" font-size="24" font-weight="bold" fill="white">4</text>
    <text x="0" y="60" text-anchor="middle" font-family="Arial, sans-serif" font-size="14" font-weight="bold" fill="#2c3e50">Mass</text>
    <text x="0" y="80" text-anchor="middle" font-family="Arial, sans-serif" font-size="14" fill="#2c3e50">Production</text>
    
    <!-- Production Line -->
    <rect x="-20" y="-10" width="40" height="6" fill="white" rx="3"/>
    <circle cx="-12" cy="-7" r="3" fill="#27ae60"/>
    <circle cx="0" cy="-7" r="3" fill="#27ae60"/>
    <circle cx="12" cy="-7" r="3" fill="#27ae60"/>
  </g>
  
  <!-- Connecting Arrows -->
  <path d="M140 120 L260 120" fill="none" stroke="#2c3e50" stroke-width="3" marker-end="url(#arrowhead)"/>
  <path d="M340 120 L460 120" fill="none" stroke="#2c3e50" stroke-width="3" marker-end="url(#arrowhead)"/>
  <path d="M540 120 L660 120" fill="none" stroke="#2c3e50" stroke-width="3" marker-end="url(#arrowhead)"/>
  
  <!-- Arrow Marker -->
  <defs>
    <marker id="arrowhead" markerWidth="10" markerHeight="7" refX="9" refY="3.5" orient="auto">
      <polygon points="0 0, 10 3.5, 0 7" fill="#2c3e50"/>
    </marker>
  </defs>
  
  <!-- Customization Options -->
  <g transform="translate(400, 280)">
    <rect x="-300" y="0" width="600" height="200" fill="rgba(255,255,255,0.9)" rx="15"/>
    <text x="0" y="30" text-anchor="middle" font-family="Arial, sans-serif" font-size="20" font-weight="bold" fill="#2c3e50">Customization Options</text>
    
    <!-- Logo Placement -->
    <g transform="translate(-200, 80)">
      <rect x="-40" y="-30" width="80" height="60" fill="#3498db" rx="8"/>
      <text x="0" y="-5" text-anchor="middle" font-family="Arial, sans-serif" font-size="16" font-weight="bold" fill="white">LOGO</text>
      <text x="0" y="50" text-anchor="middle" font-family="Arial, sans-serif" font-size="12" fill="#2c3e50">Custom Branding</text>
    </g>
    
    <!-- Color Options -->
    <g transform="translate(0, 80)">
      <circle cx="-20" cy="-10" r="15" fill="#e74c3c"/>
      <circle cx="0" cy="-10" r="15" fill="#3498db"/>
      <circle cx="20" cy="-10" r="15" fill="#27ae60"/>
      <text x="0" y="50" text-anchor="middle" font-family="Arial, sans-serif" font-size="12" fill="#2c3e50">Color Selection</text>
    </g>
    
    <!-- Size Options -->
    <g transform="translate(200, 80)">
      <rect x="-25" y="-20" width="15" height="25" fill="#8e44ad" rx="2"/>
      <rect x="-5" y="-25" width="20" height="30" fill="#8e44ad" rx="2"/>
      <rect x="20" y="-30" width="25" height="35" fill="#8e44ad" rx="2"/>
      <text x="0" y="50" text-anchor="middle" font-family="Arial, sans-serif" font-size="12" fill="#2c3e50">Size Variations</text>
    </g>
  </g>
  
  <!-- B2B Benefits -->
  <g transform="translate(400, 520)">
    <rect x="-350" y="0" width="700" height="60" fill="url(#processGradient)" rx="10"/>
    <text x="0" y="25" text-anchor="middle" font-family="Arial, sans-serif" font-size="18" font-weight="bold" fill="white">B2B Manufacturing Benefits</text>
    <text x="-250" y="45" font-family="Arial, sans-serif" font-size="12" fill="white">• Bulk Pricing</text>
    <text x="-100" y="45" font-family="Arial, sans-serif" font-size="12" fill="white">• Quality Assurance</text>
    <text x="50" y="45" font-family="Arial, sans-serif" font-size="12" fill="white">• Fast Turnaround</text>
    <text x="200" y="45" font-family="Arial, sans-serif" font-size="12" fill="white">• Global Shipping</text>
  </g>
</svg>