<svg width="64" height="64" viewBox="0 0 64 64" fill="none" xmlns="http://www.w3.org/2000/svg">
  <rect width="64" height="64" rx="12" fill="#007bff" fill-opacity="0.1"/>
  <path d="M32 8C36.4183 8 40 11.5817 40 16V20H44C46.2091 20 48 21.7909 48 24V52C48 54.2091 46.2091 56 44 56H20C17.7909 56 16 54.2091 16 52V24C16 21.7909 17.7909 20 20 20H24V16C24 11.5817 27.5817 8 32 8ZM44 24H20V52H44V24ZM32 28C34.2091 28 36 29.7909 36 32C36 33.4938 35.1956 34.7817 34.0005 35.4644L35 44H29L29.9995 35.4644C28.8044 34.7817 28 33.4938 28 32C28 29.7909 29.7909 28 32 28ZM32 12C29.7909 12 28 13.7909 28 16V20H36V16C36 13.7909 34.2091 12 32 12Z" fill="#007bff"/>
</svg>