<svg xmlns="http://www.w3.org/2000/svg" viewBox="0 0 100 100">
  <defs>
    <linearGradient id="designGrad" x1="0%" y1="0%" x2="100%" y2="100%">
      <stop offset="0%" style="stop-color:#f39c12;stop-opacity:1" />
      <stop offset="100%" style="stop-color:#e67e22;stop-opacity:1" />
    </linearGradient>
  </defs>
  
  <!-- Background circle -->
  <circle cx="50" cy="50" r="45" fill="url(#designGrad)"/>
  
  <!-- Design consultation icon -->
  <g fill="white">
    <!-- Drawing board -->
    <rect x="25" y="30" width="50" height="35" rx="3" fill="white"/>
    
    <!-- Design sketch -->
    <g stroke="#f39c12" stroke-width="1.5" fill="none">
      <path d="M35,40 Q45,35 55,40 Q65,45 65,55"/>
      <circle cx="40" cy="45" r="3"/>
      <rect x="50" y="50" width="8" height="8" rx="1"/>
    </g>
    
    <!-- Pencil -->
    <g transform="translate(70,25) rotate(45)">
      <rect x="-8" y="-1" width="16" height="2" fill="white"/>
      <polygon points="8,-1 12,0 8,1" fill="#e67e22"/>
      <rect x="-10" y="-0.5" width="2" height="1" fill="#2c3e50"/>
    </g>
    
    <!-- Ruler -->
    <rect x="30" y="70" width="40" height="4" rx="2" fill="white"/>
    <g fill="#f39c12">
      <rect x="35" y="71" width="1" height="2"/>
      <rect x="40" y="71" width="1" height="2"/>
      <rect x="45" y="71" width="1" height="2"/>
      <rect x="50" y="71" width="1" height="2"/>
      <rect x="55" y="71" width="1" height="2"/>
      <rect x="60" y="71" width="1" height="2"/>
      <rect x="65" y="71" width="1" height="2"/>
    </g>
  </g>
</svg>