<svg width="60" height="60" viewBox="0 0 60 60" fill="none" xmlns="http://www.w3.org/2000/svg">
  <!-- Shield shape -->
  <path d="M30 8 L45 15 L45 35 C45 42, 38 48, 30 52 C22 48, 15 42, 15 35 L15 15 Z" fill="#374151" stroke="#1f2937" stroke-width="2"/>
  
  <!-- Inner shield -->
  <path d="M30 12 L40 17 L40 33 C40 38, 35 42, 30 45 C25 42, 20 38, 20 33 L20 17 Z" fill="#4b5563"/>
  
  <!-- Strength lines -->
  <line x1="25" y1="20" x2="35" y2="20" stroke="#9ca3af" stroke-width="2"/>
  <line x1="23" y1="25" x2="37" y2="25" stroke="#9ca3af" stroke-width="2"/>
  <line x1="25" y1="30" x2="35" y2="30" stroke="#9ca3af" stroke-width="2"/>
  <line x1="27" y1="35" x2="33" y2="35" stroke="#9ca3af" stroke-width="2"/>
  
  <!-- Diamond pattern for strength -->
  <path d="M30 22 L32 25 L30 28 L28 25 Z" fill="#6b7280"/>
  <path d="M30 30 L32 33 L30 36 L28 33 Z" fill="#6b7280"/>
  
  <!-- Reinforcement rivets -->
  <circle cx="25" cy="18" r="1.5" fill="#9ca3af"/>
  <circle cx="35" cy="18" r="1.5" fill="#9ca3af"/>
  <circle cx="22" cy="28" r="1.5" fill="#9ca3af"/>
  <circle cx="38" cy="28" r="1.5" fill="#9ca3af"/>
  
  <!-- Central strength symbol -->
  <circle cx="30" cy="30" r="3" fill="#ef4444"/>
  <text x="30" y="33" text-anchor="middle" font-size="6" fill="white" font-weight="bold">D</text>
</svg>