<svg xmlns="http://www.w3.org/2000/svg" viewBox="0 0 100 100" width="100" height="100">
  <defs>
    <linearGradient id="eduGrad" x1="0%" y1="0%" x2="100%" y2="100%">
      <stop offset="0%" style="stop-color:#48bb78;stop-opacity:1" />
      <stop offset="100%" style="stop-color:#2f855a;stop-opacity:1" />
    </linearGradient>
    <style>
      .building { fill: url(#eduGrad); stroke: #2f855a; stroke-width: 1; }
      .window { fill: #ffffff; opacity: 0.9; }
      .highlight { fill: #ed8936; }
      .book { fill: #e53e3e; }
      .icon-text { font-family: 'Arial', sans-serif; font-size: 6px; fill: #ffffff; font-weight: bold; }
    </style>
  </defs>
  
  <!-- Main School Building -->
  <rect class="building" x="15" y="40" width="70" height="50" rx="3"/>
  
  <!-- School Roof -->
  <polygon class="building" points="15,40 50,20 85,40" />
  
  <!-- Bell Tower -->
  <rect class="building" x="45" y="15" width="10" height="25" rx="2"/>
  <circle cx="50" cy="18" r="3" class="highlight"/>
  
  <!-- Main Entrance -->
  <rect class="building" x="42" y="70" width="16" height="20"/>
  <polygon class="building" points="42,70 50,60 58,70"/>
  
  <!-- Windows -->
  <rect class="window" x="20" y="45" width="8" height="8"/>
  <rect class="window" x="30" y="45" width="8" height="8"/>
  <rect class="window" x="62" y="45" width="8" height="8"/>
  <rect class="window" x="72" y="45" width="8" height="8"/>
  
  <rect class="window" x="20" y="57" width="8" height="8"/>
  <rect class="window" x="30" y="57" width="8" height="8"/>
  <rect class="window" x="62" y="57" width="8" height="8"/>
  <rect class="window" x="72" y="57" width="8" height="8"/>
  
  <!-- Columns -->
  <rect class="window" x="40" y="70" width="2" height="20"/>
  <rect class="window" x="58" y="70" width="2" height="20"/>
  
  <!-- Educational Symbols -->
  <!-- Books -->
  <g transform="translate(10, 75)">
    <rect class="book" x="0" y="0" width="3" height="8"/>
    <rect class="book" x="4" y="0" width="3" height="8" fill="#3182ce"/>
    <rect class="book" x="8" y="0" width="3" height="8" fill="#38a169"/>
  </g>
  
  <!-- Graduation Cap -->
  <g transform="translate(75, 25)">
    <rect class="highlight" x="0" y="5" width="12" height="2"/>
    <polygon class="highlight" points="6,0 10,5 2,5"/>
    <rect class="highlight" x="10" y="3" width="4" height="1"/>
  </g>
  
  <!-- Apple for Teacher -->
  <circle cx="25" cy="30" r="4" fill="#e53e3e"/>
  <rect x="24" y="26" width="2" height="3" fill="#2f855a"/>
  
  <!-- School Sign -->
  <rect x="30" y="25" width="40" height="8" class="highlight"/>
  <text x="50" y="31" text-anchor="middle" class="icon-text">EDUCATION</text>
  
  <!-- Students (simplified figures) -->
  <g transform="translate(5, 85)">
    <circle cx="2" cy="2" r="2" fill="#2d3748"/>
    <rect x="1" y="4" width="2" height="4" fill="#2d3748"/>
    
    <circle cx="8" cy="2" r="2" fill="#2d3748"/>
    <rect x="7" y="4" width="2" height="4" fill="#2d3748"/>
    
    <circle cx="14" cy="2" r="2" fill="#2d3748"/>
    <rect x="13" y="4" width="2" height="4" fill="#2d3748"/>
  </g>
</svg>