<svg width="64" height="64" viewBox="0 0 64 64" fill="none" xmlns="http://www.w3.org/2000/svg">
  <rect width="64" height="64" rx="12" fill="#28a745" fill-opacity="0.1"/>
  <path d="M32 8C42.4934 8 51 16.5066 51 27C51 37.4934 42.4934 46 32 46C21.5066 46 13 37.4934 13 27C13 16.5066 21.5066 8 32 8ZM32 12C23.7157 12 17 18.7157 17 27C17 35.2843 23.7157 42 32 42C40.2843 42 47 35.2843 47 27C47 18.7157 40.2843 12 32 12ZM36.5 19L42 24.5L36.5 30L34.5 28L37 25.5H22V23.5H37L34.5 21L36.5 19ZM16 50H48V54H16V50Z" fill="#28a745"/>
</svg>