<svg xmlns="http://www.w3.org/2000/svg" viewBox="0 0 400 500" width="400" height="500">
  <defs>
    <linearGradient id="backpackGradient" x1="0%" y1="0%" x2="100%" y2="100%">
      <stop offset="0%" style="stop-color:#2c2c2c;stop-opacity:1" />
      <stop offset="50%" style="stop-color:#1a1a1a;stop-opacity:1" />
      <stop offset="100%" style="stop-color:#0d0d0d;stop-opacity:1" />
    </linearGradient>
    <linearGradient id="zipperGradient" x1="0%" y1="0%" x2="100%" y2="0%">
      <stop offset="0%" style="stop-color:#666;stop-opacity:1" />
      <stop offset="100%" style="stop-color:#999;stop-opacity:1" />
    </linearGradient>
  </defs>
  
  <!-- Main backpack body -->
  <path d="M120 80 Q120 60 140 60 L260 60 Q280 60 280 80 L280 380 Q280 420 260 420 L140 420 Q120 420 120 380 Z" fill="url(#backpackGradient)" stroke="#000" stroke-width="2"/>
  
  <!-- Front pocket -->
  <path d="M140 120 Q140 110 150 110 L250 110 Q260 110 260 120 L260 200 Q260 210 250 210 L150 210 Q140 210 140 200 Z" fill="#333" stroke="#222" stroke-width="1"/>
  
  <!-- Zipper on front pocket -->
  <rect x="145" y="115" width="110" height="3" fill="url(#zipperGradient)"/>
  <circle cx="250" cy="116.5" r="3" fill="#888"/>
  
  <!-- Main zipper -->
  <rect x="125" y="65" width="150" height="4" fill="url(#zipperGradient)"/>
  <circle cx="270" cy="67" r="4" fill="#888"/>
  
  <!-- Side pockets -->
  <ellipse cx="110" cy="200" rx="15" ry="40" fill="#2a2a2a" stroke="#111" stroke-width="1"/>
  <ellipse cx="290" cy="200" rx="15" ry="40" fill="#2a2a2a" stroke="#111" stroke-width="1"/>
  
  <!-- Shoulder straps -->
  <path d="M100 120 Q80 110 70 130 L70 180 Q70 200 80 190 L100 180" fill="#444" stroke="#222" stroke-width="1"/>
  <path d="M300 120 Q320 110 330 130 L330 180 Q330 200 320 190 L300 180" fill="#444" stroke="#222" stroke-width="1"/>
  
  <!-- Strap padding -->
  <rect x="75" y="140" width="8" height="30" rx="4" fill="#666"/>
  <rect x="317" y="140" width="8" height="30" rx="4" fill="#666"/>
  
  <!-- Top handle -->
  <path d="M180 50 Q200 40 220 50" fill="none" stroke="#444" stroke-width="6" stroke-linecap="round"/>
  
  <!-- Brand logo area -->
  <rect x="170" y="250" width="60" height="20" rx="3" fill="#555" stroke="#333" stroke-width="1"/>
  <text x="200" y="263" font-family="Arial, sans-serif" font-size="8" text-anchor="middle" fill="#ccc">PREMIUM</text>
  
  <!-- Bottom reinforcement -->
  <rect x="130" y="410" width="140" height="10" rx="5" fill="#222" stroke="#111" stroke-width="1"/>
  
  <!-- Reflective strips -->
  <rect x="135" y="300" width="3" height="80" fill="#888" opacity="0.7"/>
  <rect x="262" y="300" width="3" height="80" fill="#888" opacity="0.7"/>
</svg>