<svg xmlns="http://www.w3.org/2000/svg" viewBox="0 0 100 100" width="100" height="100">
  <defs>
    <linearGradient id="innovationGradient" x1="0%" y1="0%" x2="100%" y2="100%">
      <stop offset="0%" style="stop-color:#fbbf24;stop-opacity:1" />
      <stop offset="100%" style="stop-color:#f59e0b;stop-opacity:1" />
    </linearGradient>
    <radialGradient id="bulbGlow" cx="50%" cy="40%" r="60%">
      <stop offset="0%" style="stop-color:#fef3c7;stop-opacity:0.8" />
      <stop offset="100%" style="stop-color:#fbbf24;stop-opacity:0.2" />
    </radialGradient>
  </defs>
  
  <!-- Light bulb glow -->
  <circle cx="50" cy="40" r="25" fill="url(#bulbGlow)"/>
  
  <!-- Light bulb -->
  <circle cx="50" cy="35" r="18" fill="url(#innovationGradient)" stroke="#d97706" stroke-width="2"/>
  
  <!-- Bulb filament -->
  <path d="M42 30 Q50 25 58 30" fill="none" stroke="#92400e" stroke-width="1.5"/>
  <path d="M42 35 Q50 30 58 35" fill="none" stroke="#92400e" stroke-width="1.5"/>
  <path d="M42 40 Q50 35 58 40" fill="none" stroke="#92400e" stroke-width="1.5"/>
  
  <!-- Bulb base -->
  <rect x="45" y="50" width="10" height="8" fill="#6b7280" stroke="#4b5563" stroke-width="1"/>
  
  <!-- Screw threads -->
  <line x1="45" y1="52" x2="55" y2="52" stroke="#374151" stroke-width="0.5"/>
  <line x1="45" y1="54" x2="55" y2="54" stroke="#374151" stroke-width="0.5"/>
  <line x1="45" y1="56" x2="55" y2="56" stroke="#374151" stroke-width="0.5"/>
  
  <!-- Innovation sparks -->
  <g stroke="#fbbf24" stroke-width="2" fill="none" stroke-linecap="round">
    <path d="M25 20 L30 15 M27 18 L32 18"/>
    <path d="M75 25 L80 20 M77 23 L82 23"/>
    <path d="M20 45 L15 40 M18 43 L18 38"/>
    <path d="M85 50 L90 45 M87 48 L87 43"/>
    <path d="M30 65 L25 70 M28 67 L23 67"/>
    <path d="M75 70 L80 75 M77 72 L82 72"/>
  </g>
  
  <!-- Gear for innovation -->
  <circle cx="25" cy="75" r="8" fill="#6b7280" stroke="#4b5563" stroke-width="1"/>
  <circle cx="25" cy="75" r="4" fill="#374151"/>
  
  <!-- Gear teeth -->
  <rect x="23" y="66" width="4" height="2" fill="#6b7280"/>
  <rect x="23" y="82" width="4" height="2" fill="#6b7280"/>
  <rect x="16" y="73" width="2" height="4" fill="#6b7280"/>
  <rect x="32" y="73" width="2" height="4" fill="#6b7280"/>
  
  <!-- Circuit pattern -->
  <g stroke="#3b82f6" stroke-width="1" fill="none">
    <path d="M70 75 L75 75 L75 80 L80 80"/>
    <path d="M75 75 L75 70 L80 70"/>
    <circle cx="75" cy="75" r="1" fill="#3b82f6"/>
    <circle cx="80" cy="70" r="1" fill="#3b82f6"/>
    <circle cx="80" cy="80" r="1" fill="#3b82f6"/>
  </g>
  
  <!-- DNA helix for innovation -->
  <g stroke="#10b981" stroke-width="1.5" fill="none">
    <path d="M15 25 Q20 20 25 25 Q30 30 35 25"/>
    <path d="M15 30 Q20 35 25 30 Q30 25 35 30"/>
    <line x1="18" y1="27" x2="22" y2="28" stroke="#10b981" stroke-width="0.5"/>
    <line x1="28" y1="27" x2="32" y2="28" stroke="#10b981" stroke-width="0.5"/>
  </g>
</svg>