<svg xmlns="http://www.w3.org/2000/svg" viewBox="0 0 200 60" width="200" height="60">
  <defs>
    <linearGradient id="logoGradient" x1="0%" y1="0%" x2="100%" y2="100%">
      <stop offset="0%" style="stop-color:#1a1a1a;stop-opacity:1" />
      <stop offset="100%" style="stop-color:#333333;stop-opacity:1" />
    </linearGradient>
  </defs>
  
  <!-- Backpack silhouette -->
  <path d="M20 15 Q20 10 25 10 L35 10 Q40 10 40 15 L40 45 Q40 50 35 50 L25 50 Q20 50 20 45 Z" fill="url(#logoGradient)" stroke="#000" stroke-width="1"/>
  
  <!-- Backpack straps -->
  <path d="M18 20 Q15 18 15 25 L15 35 Q15 42 18 40" fill="none" stroke="#333" stroke-width="2"/>
  <path d="M42 20 Q45 18 45 25 L45 35 Q45 42 42 40" fill="none" stroke="#333" stroke-width="2"/>
  
  <!-- Backpack details -->
  <rect x="22" y="20" width="16" height="8" rx="2" fill="#444" stroke="#222" stroke-width="0.5"/>
  <circle cx="30" cy="24" r="1" fill="#666"/>
  
  <!-- Company text -->
  <text x="55" y="25" font-family="Arial, sans-serif" font-size="16" font-weight="bold" fill="#1a1a1a">Black Backpack</text>
  <text x="55" y="40" font-family="Arial, sans-serif" font-size="10" fill="#666">Manufacturing Co.</text>
</svg>