<svg xmlns="http://www.w3.org/2000/svg" viewBox="0 0 100 100" width="100" height="100">
  <defs>
    <linearGradient id="manufacturingGradient" x1="0%" y1="0%" x2="100%" y2="100%">
      <stop offset="0%" style="stop-color:#3b82f6;stop-opacity:1" />
      <stop offset="100%" style="stop-color:#1d4ed8;stop-opacity:1" />
    </linearGradient>
  </defs>
  
  <!-- Factory building -->
  <rect x="20" y="40" width="60" height="40" fill="url(#manufacturingGradient)" stroke="#1e40af" stroke-width="2"/>
  
  <!-- Factory roof -->
  <polygon points="15,40 50,25 85,40" fill="#1e40af" stroke="#1d4ed8" stroke-width="1"/>
  
  <!-- Chimney -->
  <rect x="65" y="15" width="8" height="25" fill="#6b7280" stroke="#4b5563" stroke-width="1"/>
  
  <!-- Smoke -->
  <circle cx="69" cy="12" r="2" fill="#d1d5db" opacity="0.7"/>
  <circle cx="71" cy="8" r="1.5" fill="#d1d5db" opacity="0.5"/>
  <circle cx="67" cy="6" r="1" fill="#d1d5db" opacity="0.3"/>
  
  <!-- Factory windows -->
  <rect x="25" y="50" width="8" height="8" fill="#fbbf24" stroke="#f59e0b" stroke-width="1"/>
  <rect x="40" y="50" width="8" height="8" fill="#fbbf24" stroke="#f59e0b" stroke-width="1"/>
  <rect x="55" y="50" width="8" height="8" fill="#fbbf24" stroke="#f59e0b" stroke-width="1"/>
  
  <!-- Factory door -->
  <rect x="67" y="60" width="10" height="20" fill="#374151" stroke="#1f2937" stroke-width="1"/>
  <circle cx="75" cy="70" r="1" fill="#fbbf24"/>
  
  <!-- Gear mechanism -->
  <circle cx="30" cy="65" r="6" fill="#6b7280" stroke="#4b5563" stroke-width="1"/>
  <circle cx="30" cy="65" r="3" fill="#374151"/>
  
  <!-- Gear teeth -->
  <rect x="28" y="58" width="4" height="2" fill="#6b7280"/>
  <rect x="28" y="70" width="4" height="2" fill="#6b7280"/>
  <rect x="23" y="63" width="2" height="4" fill="#6b7280"/>
  <rect x="33" y="63" width="2" height="4" fill="#6b7280"/>
  
  <!-- Conveyor belt -->
  <rect x="10" y="85" width="80" height="4" rx="2" fill="#374151" stroke="#1f2937" stroke-width="1"/>
  
  <!-- Conveyor rollers -->
  <circle cx="15" cy="87" r="2" fill="#6b7280"/>
  <circle cx="25" cy="87" r="2" fill="#6b7280"/>
  <circle cx="35" cy="87" r="2" fill="#6b7280"/>
  <circle cx="45" cy="87" r="2" fill="#6b7280"/>
  <circle cx="55" cy="87" r="2" fill="#6b7280"/>
  <circle cx="65" cy="87" r="2" fill="#6b7280"/>
  <circle cx="75" cy="87" r="2" fill="#6b7280"/>
  <circle cx="85" cy="87" r="2" fill="#6b7280"/>
</svg>