<svg xmlns="http://www.w3.org/2000/svg" viewBox="0 0 100 100">
  <defs>
    <linearGradient id="odmGrad" x1="0%" y1="0%" x2="100%" y2="100%">
      <stop offset="0%" style="stop-color:#e74c3c;stop-opacity:1" />
      <stop offset="100%" style="stop-color:#c0392b;stop-opacity:1" />
    </linearGradient>
  </defs>
  
  <!-- Background circle -->
  <circle cx="50" cy="50" r="45" fill="url(#odmGrad)"/>
  
  <!-- Design/Innovation icon -->
  <g fill="white">
    <!-- Lightbulb -->
    <circle cx="50" cy="35" r="12" fill="white"/>
    <rect x="45" y="47" width="10" height="8" rx="2"/>
    <rect x="47" y="55" width="6" height="3" rx="1"/>
    
    <!-- Filament -->
    <path d="M45,30 Q50,25 55,30 M45,35 Q50,30 55,35 M45,40 Q50,35 55,40" stroke="#e74c3c" stroke-width="1" fill="none"/>
    
    <!-- Gear -->
    <g transform="translate(70,70)">
      <circle cx="0" cy="0" r="8" fill="white"/>
      <circle cx="0" cy="0" r="4" fill="#e74c3c"/>
      <!-- Gear teeth -->
      <rect x="-1" y="-12" width="2" height="4"/>
      <rect x="-1" y="8" width="2" height="4"/>
      <rect x="-12" y="-1" width="4" height="2"/>
      <rect x="8" y="-1" width="4" height="2"/>
      <rect x="-8" y="-8" width="2" height="2" transform="rotate(45)"/>
      <rect x="6" y="-8" width="2" height="2" transform="rotate(45)"/>
      <rect x="-8" y="6" width="2" height="2" transform="rotate(45)"/>
      <rect x="6" y="6" width="2" height="2" transform="rotate(45)"/>
    </g>
    
    <!-- Pencil -->
    <g transform="translate(30,70)">
      <rect x="-8" y="-2" width="16" height="4" rx="2" fill="white"/>
      <polygon points="8,-2 12,0 8,2" fill="#f39c12"/>
      <rect x="-10" y="-1" width="2" height="2" fill="#e74c3c"/>
    </g>
  </g>
</svg>