<svg xmlns="http://www.w3.org/2000/svg" viewBox="0 0 100 100" width="100" height="100">
  <defs>
    <linearGradient id="outdoorGrad" x1="0%" y1="0%" x2="100%" y2="100%">
      <stop offset="0%" style="stop-color:#68d391;stop-opacity:1" />
      <stop offset="100%" style="stop-color:#38a169;stop-opacity:1" />
    </linearGradient>
    <linearGradient id="skyGrad" x1="0%" y1="0%" x2="100%" y2="100%">
      <stop offset="0%" style="stop-color:#63b3ed;stop-opacity:1" />
      <stop offset="100%" style="stop-color:#3182ce;stop-opacity:1" />
    </linearGradient>
    <style>
      .mountain { fill: #4a5568; stroke: #2d3748; stroke-width: 1; }
      .tree { fill: url(#outdoorGrad); }
      .sky { fill: url(#skyGrad); }
      .sun { fill: #ffd700; }
      .trail { fill: #a0aec0; }
      .icon-text { font-family: 'Arial', sans-serif; font-size: 6px; fill: #2d3748; font-weight: bold; }
    </style>
  </defs>
  
  <!-- Sky Background -->
  <rect class="sky" x="0" y="0" width="100" height="60"/>
  
  <!-- Sun -->
  <circle class="sun" cx="80" cy="20" r="8"/>
  
  <!-- Mountains -->
  <polygon class="mountain" points="0,60 25,25 50,45 75,15 100,40 100,60"/>
  
  <!-- Snow Caps -->
  <polygon fill="#ffffff" points="20,35 25,25 30,35"/>
  <polygon fill="#ffffff" points="70,25 75,15 80,25"/>
  
  <!-- Ground/Trail -->
  <rect class="trail" x="0" y="60" width="100" height="40"/>
  
  <!-- Hiking Trail -->
  <path d="M0 70 Q25 65 50 70 T100 75" stroke="#8b4513" stroke-width="3" fill="none"/>
  
  <!-- Trees -->
  <g transform="translate(15, 50)">
    <!-- Tree trunk -->
    <rect x="4" y="15" width="2" height="8" fill="#8b4513"/>
    <!-- Tree foliage -->
    <polygon class="tree" points="5,5 1,15 9,15"/>
    <polygon class="tree" points="5,8 2,18 8,18"/>
  </g>
  
  <g transform="translate(35, 55)">
    <rect x="4" y="12" width="2" height="6" fill="#8b4513"/>
    <polygon class="tree" points="5,3 1,12 9,12"/>
    <polygon class="tree" points="5,6 2,15 8,15"/>
  </g>
  
  <g transform="translate(65, 52)">
    <rect x="4" y="13" width="2" height="7" fill="#8b4513"/>
    <polygon class="tree" points="5,4 1,13 9,13"/>
    <polygon class="tree" points="5,7 2,16 8,16"/>
  </g>
  
  <!-- Hiking Backpack -->
  <g transform="translate(45, 65)">
    <!-- Main backpack body -->
    <path fill="#e53e3e" stroke="#c53030" stroke-width="1" d="M0 5 Q0 0 5 0 L15 0 Q20 0 20 5 L20 20 Q20 25 15 25 L5 25 Q0 25 0 20 Z"/>
    
    <!-- Front pocket -->
    <path fill="#c53030" d="M3 8 Q3 6 5 6 L15 6 Q17 6 17 8 L17 15 Q17 17 15 17 L5 17 Q3 17 3 15 Z"/>
    
    <!-- Straps -->
    <rect fill="#2d3748" x="-2" y="3" width="2" height="15" rx="1"/>
    <rect fill="#2d3748" x="20" y="3" width="2" height="15" rx="1"/>
    
    <!-- Outdoor gear attachments -->
    <circle cx="18" cy="8" r="2" fill="#ffd700"/>
    <rect x="-1" y="20" width="3" height="4" fill="#38a169"/>
  </g>
  
  <!-- Compass -->
  <g transform="translate(75, 75)">
    <circle cx="0" cy="0" r="6" fill="#ffffff" stroke="#2d3748" stroke-width="1"/>
    <circle cx="0" cy="0" r="4" fill="none" stroke="#e53e3e" stroke-width="1"/>
    <polygon points="0,-3 1,0 0,3 -1,0" fill="#e53e3e"/>
    <text x="0" y="1" text-anchor="middle" class="icon-text">N</text>
  </g>
  
  <!-- Tent -->
  <g transform="translate(20, 75)">
    <polygon fill="#ed8936" stroke="#dd6b20" stroke-width="1" points="0,8 8,0 16,8"/>
    <rect fill="#dd6b20" x="7" y="8" width="2" height="4"/>
  </g>
  
  <!-- Outdoor Activity Label -->
  <rect x="25" y="85" width="50" height="8" fill="#2d3748" opacity="0.8"/>
  <text x="50" y="91" text-anchor="middle" fill="#ffffff" font-family="Arial" font-size="8" font-weight="bold">OUTDOOR</text>
</svg>