<svg xmlns="http://www.w3.org/2000/svg" viewBox="0 0 320 380" width="320" height="380">
  <defs>
    <linearGradient id="outdoorGradient" x1="0%" y1="0%" x2="100%" y2="100%">
      <stop offset="0%" style="stop-color:#2d5016;stop-opacity:1" />
      <stop offset="50%" style="stop-color:#365314;stop-opacity:1" />
      <stop offset="100%" style="stop-color:#1a2e05;stop-opacity:1" />
    </linearGradient>
  </defs>
  
  <!-- Main outdoor backpack body -->
  <path d="M80 70 Q80 50 100 50 L220 50 Q240 50 240 70 L240 310 Q240 340 220 340 L100 340 Q80 340 80 310 Z" fill="url(#outdoorGradient)" stroke="#000" stroke-width="2"/>
  
  <!-- Top lid -->
  <path d="M90 70 Q90 40 110 40 L210 40 Q230 40 230 70 L230 90 Q230 100 210 100 L110 100 Q90 100 90 90 Z" fill="#4d7c0f" stroke="#365314" stroke-width="1"/>
  
  <!-- Lid buckles -->
  <rect x="120" y="85" width="8" height="6" rx="1" fill="#666" stroke="#333" stroke-width="1"/>
  <rect x="192" y="85" width="8" height="6" rx="1" fill="#666" stroke="#333" stroke-width="1"/>
  
  <!-- Side compression straps -->
  <rect x="70" y="150" width="6" height="80" rx="1" fill="#4d7c0f" stroke="#365314" stroke-width="1"/>
  <rect x="244" y="150" width="6" height="80" rx="1" fill="#4d7c0f" stroke="#365314" stroke-width="1"/>
  
  <!-- Buckles on compression straps -->
  <rect x="68" y="180" width="10" height="6" rx="1" fill="#888" stroke="#555" stroke-width="1"/>
  <rect x="242" y="180" width="10" height="6" rx="1" fill="#888" stroke="#555" stroke-width="1"/>
  
  <!-- External frame -->
  <rect x="85" y="60" width="4" height="260" fill="#666" stroke="#333" stroke-width="1"/>
  <rect x="231" y="60" width="4" height="260" fill="#666" stroke="#333" stroke-width="1"/>
  
  <!-- Side pockets -->
  <ellipse cx="65" cy="180" rx="15" ry="45" fill="#4d7c0f" stroke="#365314" stroke-width="1"/>
  <ellipse cx="255" cy="180" rx="15" ry="45" fill="#4d7c0f" stroke="#365314" stroke-width="1"/>
  
  <!-- Water bottle holder -->
  <ellipse cx="50" cy="220" rx="10" ry="25" fill="#333" stroke="#111" stroke-width="1"/>
  <rect x="45" y="210" width="10" height="3" fill="#666"/>
  
  <!-- Hiking poles attachment -->
  <circle cx="270" cy="250" r="4" fill="#666" stroke="#333" stroke-width="1"/>
  <circle cx="270" cy="280" r="4" fill="#666" stroke="#333" stroke-width="1"/>
  
  <!-- Heavy-duty shoulder straps -->
  <path d="M70 110 Q50 100 40 120 L40 190 Q40 210 50 200 L70 190" fill="#555" stroke="#333" stroke-width="1"/>
  <path d="M250 110 Q270 100 280 120 L280 190 Q280 210 270 200 L250 190" fill="#555" stroke="#333" stroke-width="1"/>
  
  <!-- Thick strap padding -->
  <rect x="45" y="140" width="10" height="30" rx="5" fill="#777"/>
  <rect x="265" y="140" width="10" height="30" rx="5" fill="#777"/>
  
  <!-- Chest strap -->
  <rect x="50" y="145" width="220" height="4" fill="#666" stroke="#444" stroke-width="1"/>
  <rect x="155" y="142" width="10" height="10" rx="2" fill="#888" stroke="#555" stroke-width="1"/>
  
  <!-- Hip belt -->
  <path d="M90 270 Q160 260 230 270" fill="none" stroke="#777" stroke-width="6"/>
  <rect x="85" y="267" width="20" height="12" rx="3" fill="#888" stroke="#555" stroke-width="1"/>
  <rect x="215" y="267" width="20" height="12" rx="3" fill="#888" stroke="#555" stroke-width="1"/>
  
  <!-- Top handle -->
  <path d="M140 35 Q160 25 180 35" fill="none" stroke="#555" stroke-width="8" stroke-linecap="round"/>
  
  <!-- Rain cover compartment -->
  <rect x="150" y="330" width="20" height="8" rx="4" fill="#4d7c0f" stroke="#365314" stroke-width="1"/>
  
  <!-- Reflective patches -->
  <rect x="95" y="310" width="25" height="4" fill="#fbbf24" opacity="0.9"/>
  <rect x="200" y="310" width="25" height="4" fill="#fbbf24" opacity="0.9"/>
  
  <!-- Carabiner loops -->
  <circle cx="110" cy="120" r="3" fill="#666" stroke="#333" stroke-width="1"/>
  <circle cx="210" cy="120" r="3" fill="#666" stroke="#333" stroke-width="1"/>
  <circle cx="110" cy="280" r="3" fill="#666" stroke="#333" stroke-width="1"/>
  <circle cx="210" cy="280" r="3" fill="#666" stroke="#333" stroke-width="1"/>
</svg>