<svg xmlns="http://www.w3.org/2000/svg" viewBox="0 0 100 100">
  <defs>
    <linearGradient id="protoGrad" x1="0%" y1="0%" x2="100%" y2="100%">
      <stop offset="0%" style="stop-color:#1abc9c;stop-opacity:1" />
      <stop offset="100%" style="stop-color:#16a085;stop-opacity:1" />
    </linearGradient>
  </defs>
  
  <!-- Background circle -->
  <circle cx="50" cy="50" r="45" fill="url(#protoGrad)"/>
  
  <!-- 3D Printer/Prototyping icon -->
  <g fill="white">
    <!-- 3D Printer base -->
    <rect x="25" y="60" width="50" height="15" rx="3"/>
    
    <!-- Printer frame -->
    <rect x="30" y="30" width="4" height="30"/>
    <rect x="66" y="30" width="4" height="30"/>
    <rect x="30" y="30" width="40" height="4"/>
    
    <!-- Print head -->
    <rect x="40" y="25" width="20" height="8" rx="2"/>
    
    <!-- Print bed -->
    <rect x="35" y="50" width="30" height="3" rx="1"/>
    
    <!-- Printed object (small backpack) -->
    <g transform="translate(50,45)">
      <rect x="-6" y="-8" width="12" height="12" rx="2" fill="#ecf0f1"/>
      <rect x="-4" y="-6" width="8" height="8" rx="1" fill="#bdc3c7"/>
      <rect x="-7" y="-4" width="2" height="6" rx="1" fill="#95a5a6"/>
      <rect x="5" y="-4" width="2" height="6" rx="1" fill="#95a5a6"/>
    </g>
    
    <!-- Progress indicator -->
    <circle cx="20" cy="40" r="3" fill="#2ecc71"/>
    <circle cx="80" cy="40" r="3" fill="#e74c3c"/>
  </g>
</svg>