<svg xmlns="http://www.w3.org/2000/svg" viewBox="0 0 100 100">
  <defs>
    <linearGradient id="qualityGrad" x1="0%" y1="0%" x2="100%" y2="100%">
      <stop offset="0%" style="stop-color:#27ae60;stop-opacity:1" />
      <stop offset="100%" style="stop-color:#2ecc71;stop-opacity:1" />
    </linearGradient>
  </defs>
  
  <!-- Background circle -->
  <circle cx="50" cy="50" r="45" fill="url(#qualityGrad)"/>
  
  <!-- Quality control icon -->
  <g fill="white">
    <!-- Shield shape -->
    <path d="M50,20 L65,30 L65,55 Q65,65 50,75 Q35,65 35,55 L35,30 Z" fill="white"/>
    
    <!-- Checkmark -->
    <path d="M42,50 L48,56 L58,40" stroke="#27ae60" stroke-width="3" fill="none" stroke-linecap="round" stroke-linejoin="round"/>
    
    <!-- Magnifying glass -->
    <g transform="translate(70,70)">
      <circle cx="-5" cy="-5" r="8" fill="none" stroke="white" stroke-width="3"/>
      <line x1="1" y1="1" x2="8" y2="8" stroke="white" stroke-width="3" stroke-linecap="round"/>
    </g>
    
    <!-- Quality stars -->
    <g fill="#f39c12">
      <polygon points="25,25 26,28 29,28 27,30 28,33 25,31 22,33 23,30 21,28 24,28" transform="scale(0.8)"/>
      <polygon points="75,25 76,28 79,28 77,30 78,33 75,31 72,33 73,30 71,28 74,28" transform="scale(0.8)"/>
    </g>
  </g>
</svg>