<svg xmlns="http://www.w3.org/2000/svg" viewBox="0 0 100 100" width="100" height="100">
  <defs>
    <linearGradient id="qualityGradient" x1="0%" y1="0%" x2="100%" y2="100%">
      <stop offset="0%" style="stop-color:#10b981;stop-opacity:1" />
      <stop offset="100%" style="stop-color:#059669;stop-opacity:1" />
    </linearGradient>
  </defs>
  
  <!-- Shield shape -->
  <path d="M50 10 Q30 15 20 25 Q20 45 20 55 Q20 75 50 90 Q80 75 80 55 Q80 45 80 25 Q70 15 50 10 Z" fill="url(#qualityGradient)" stroke="#047857" stroke-width="2"/>
  
  <!-- Inner shield -->
  <path d="M50 20 Q35 23 28 30 Q28 45 28 52 Q28 68 50 78 Q72 68 72 52 Q72 45 72 30 Q65 23 50 20 Z" fill="#34d399" stroke="#10b981" stroke-width="1"/>
  
  <!-- Checkmark -->
  <path d="M40 50 L47 57 L62 42" fill="none" stroke="#fff" stroke-width="4" stroke-linecap="round" stroke-linejoin="round"/>
  
  <!-- Quality stars -->
  <polygon points="35,35 37,30 39,35 44,35 40,38 42,43 37,40 32,43 34,38 30,35" fill="#fbbf24" stroke="#f59e0b" stroke-width="0.5"/>
  <polygon points="60,30 62,25 64,30 69,30 65,33 67,38 62,35 57,38 59,33 55,30" fill="#fbbf24" stroke="#f59e0b" stroke-width="0.5"/>
  <polygon points="65,55 67,50 69,55 74,55 70,58 72,63 67,60 62,63 64,58 60,55" fill="#fbbf24" stroke="#f59e0b" stroke-width="0.5"/>
</svg>