<svg xmlns="http://www.w3.org/2000/svg" viewBox="0 0 100 100" width="100" height="100">
  <defs>
    <linearGradient id="retailGrad" x1="0%" y1="0%" x2="100%" y2="100%">
      <stop offset="0%" style="stop-color:#f093fb;stop-opacity:1" />
      <stop offset="100%" style="stop-color:#f5576c;stop-opacity:1" />
    </linearGradient>
    <style>
      .building { fill: url(#retailGrad); stroke: #e53e3e; stroke-width: 1; }
      .window { fill: #ffffff; opacity: 0.9; }
      .door { fill: #2d3748; }
      .sign { fill: #ffd700; }
      .cart { fill: #38a169; stroke: #2f855a; stroke-width: 1; }
      .icon-text { font-family: 'Arial', sans-serif; font-size: 6px; fill: #2d3748; font-weight: bold; }
    </style>
  </defs>
  
  <!-- Main Store Building -->
  <rect class="building" x="20" y="30" width="60" height="60" rx="3"/>
  
  <!-- Store Awning -->
  <rect class="sign" x="15" y="25" width="70" height="8" rx="2"/>
  
  <!-- Store Front Windows -->
  <rect class="window" x="25" y="40" width="20" height="25"/>
  <rect class="window" x="55" y="40" width="20" height="25"/>
  
  <!-- Store Entrance -->
  <rect class="door" x="45" y="65" width="10" height="25"/>
  <circle cx="52" cy="77" r="1" fill="#ffd700"/>
  
  <!-- Window Displays -->
  <g transform="translate(27, 45)">
    <!-- Mannequin with backpack -->
    <circle cx="8" cy="5" r="3" fill="#f7fafc"/>
    <rect x="6" y="8" width="4" height="8" fill="#f7fafc"/>
    <!-- Backpack on mannequin -->
    <path fill="#e53e3e" d="M4 10 Q4 8 6 8 L10 8 Q12 8 12 10 L12 16 Q12 18 10 18 L6 18 Q4 18 4 16 Z"/>
  </g>
  
  <g transform="translate(57, 45)">
    <!-- Sale sign -->
    <rect x="2" y="5" width="16" height="8" fill="#e53e3e"/>
    <text x="10" y="11" text-anchor="middle" fill="#ffffff" font-family="Arial" font-size="6" font-weight="bold">SALE</text>
    <!-- Price tags -->
    <rect x="4" y="15" width="4" height="3" fill="#ffd700"/>
    <rect x="8" y="15" width="4" height="3" fill="#ffd700"/>
    <rect x="12" y="15" width="4" height="3" fill="#ffd700"/>
  </g>
  
  <!-- Store Sign -->
  <text x="50" y="30" text-anchor="middle" fill="#2d3748" font-family="Arial" font-size="8" font-weight="bold">RETAIL STORE</text>
  
  <!-- Shopping Cart -->
  <g transform="translate(10, 70)">
    <rect class="cart" x="0" y="5" width="8" height="6" rx="1"/>
    <rect class="cart" x="0" y="0" width="6" height="3" rx="1"/>
    <circle cx="2" cy="13" r="2" fill="#2d3748"/>
    <circle cx="6" cy="13" r="2" fill="#2d3748"/>
    <rect x="8" y="2" width="1" height="8" fill="#2d3748"/>
  </g>
  
  <!-- Shopping Bags -->
  <g transform="translate(85, 75)">
    <rect x="0" y="5" width="6" height="8" fill="#e53e3e"/>
    <rect x="1" y="3" width="4" height="2" fill="#c53030"/>
    <circle cx="2" cy="4" r="0.5" fill="#c53030"/>
    <circle cx="4" cy="4" r="0.5" fill="#c53030"/>
    
    <rect x="7" y="7" width="6" height="8" fill="#38a169"/>
    <rect x="8" y="5" width="4" height="2" fill="#2f855a"/>
    <circle cx="9" cy="6" r="0.5" fill="#2f855a"/>
    <circle cx="11" cy="6" r="0.5" fill="#2f855a"/>
  </g>
  
  <!-- Credit Card Terminal -->
  <g transform="translate(65, 85)">
    <rect x="0" y="0" width="8" height="5" fill="#4a5568" rx="1"/>
    <rect x="1" y="1" width="6" height="2" fill="#68d391"/>
    <circle cx="6" cy="4" r="0.5" fill="#ffd700"/>
  </g>
  
  <!-- Customers -->
  <g transform="translate(5, 85)">
    <circle cx="2" cy="2" r="2" fill="#2d3748"/>
    <rect x="1" y="4" width="2" height="4" fill="#4299e1"/>
    
    <circle cx="8" cy="2" r="2" fill="#2d3748"/>
    <rect x="7" y="4" width="2" height="4" fill="#ed8936"/>
  </g>
  
  <!-- Retail Label -->
  <rect x="30" y="92" width="40" height="6" fill="#2d3748" opacity="0.8"/>
  <text x="50" y="97" text-anchor="middle" fill="#ffffff" font-family="Arial" font-size="6" font-weight="bold">RETAIL</text>
</svg>