<svg xmlns="http://www.w3.org/2000/svg" viewBox="0 0 280 320" width="280" height="320">
  <defs>
    <linearGradient id="schoolGradient" x1="0%" y1="0%" x2="100%" y2="100%">
      <stop offset="0%" style="stop-color:#1e3a8a;stop-opacity:1" />
      <stop offset="50%" style="stop-color:#1e40af;stop-opacity:1" />
      <stop offset="100%" style="stop-color:#1d4ed8;stop-opacity:1" />
    </linearGradient>
  </defs>
  
  <!-- Main school backpack body -->
  <rect x="70" y="60" width="140" height="200" rx="8" fill="url(#schoolGradient)" stroke="#000" stroke-width="2"/>
  
  <!-- Front pocket -->
  <rect x="85" y="100" width="110" height="70" rx="5" fill="#2563eb" stroke="#1d4ed8" stroke-width="1"/>
  
  <!-- Zipper on front pocket -->
  <rect x="90" y="105" width="100" height="3" fill="#666"/>
  <circle cx="185" cy="106.5" r="3" fill="#888"/>
  
  <!-- Main zipper -->
  <rect x="75" y="65" width="130" height="3" fill="#666"/>
  <circle cx="200" cy="66.5" r="3" fill="#888"/>
  
  <!-- Side mesh pockets -->
  <ellipse cx="60" cy="150" rx="12" ry="35" fill="#333" stroke="#111" stroke-width="1" opacity="0.7"/>
  <ellipse cx="220" cy="150" rx="12" ry="35" fill="#333" stroke="#111" stroke-width="1" opacity="0.7"/>
  
  <!-- Mesh pattern -->
  <g opacity="0.5">
    <line x1="55" y1="130" x2="65" y2="130" stroke="#666" stroke-width="0.5"/>
    <line x1="55" y1="140" x2="65" y2="140" stroke="#666" stroke-width="0.5"/>
    <line x1="55" y1="150" x2="65" y2="150" stroke="#666" stroke-width="0.5"/>
    <line x1="55" y1="160" x2="65" y2="160" stroke="#666" stroke-width="0.5"/>
    <line x1="55" y1="170" x2="65" y2="170" stroke="#666" stroke-width="0.5"/>
    
    <line x1="215" y1="130" x2="225" y2="130" stroke="#666" stroke-width="0.5"/>
    <line x1="215" y1="140" x2="225" y2="140" stroke="#666" stroke-width="0.5"/>
    <line x1="215" y1="150" x2="225" y2="150" stroke="#666" stroke-width="0.5"/>
    <line x1="215" y1="160" x2="225" y2="160" stroke="#666" stroke-width="0.5"/>
    <line x1="215" y1="170" x2="225" y2="170" stroke="#666" stroke-width="0.5"/>
  </g>
  
  <!-- Padded shoulder straps -->
  <path d="M60 100 Q40 90 30 110 L30 160 Q30 180 40 170 L60 160" fill="#444" stroke="#222" stroke-width="1"/>
  <path d="M220 100 Q240 90 250 110 L250 160 Q250 180 240 170 L220 160" fill="#444" stroke="#222" stroke-width="1"/>
  
  <!-- Strap padding -->
  <rect x="35" y="120" width="8" height="25" rx="4" fill="#666"/>
  <rect x="237" y="120" width="8" height="25" rx="4" fill="#666"/>
  
  <!-- Top handle -->
  <rect x="125" y="45" width="30" height="8" rx="4" fill="#444" stroke="#222" stroke-width="1"/>
  
  <!-- School supplies organizer -->
  <rect x="100" y="120" width="80" height="30" rx="3" fill="#3b82f6" stroke="#2563eb" stroke-width="1"/>
  
  <!-- Pen holders in organizer -->
  <circle cx="110" cy="130" r="2" fill="#1d4ed8" stroke="#1e40af" stroke-width="1"/>
  <circle cx="120" cy="130" r="2" fill="#1d4ed8" stroke="#1e40af" stroke-width="1"/>
  <circle cx="130" cy="130" r="2" fill="#1d4ed8" stroke="#1e40af" stroke-width="1"/>
  
  <!-- Calculator pocket -->
  <rect x="140" y="125" width="25" height="20" rx="2" fill="#1e40af" stroke="#1d4ed8" stroke-width="1"/>
  
  <!-- Reflective strips for safety -->
  <rect x="75" y="220" width="3" height="30" fill="#fbbf24" opacity="0.8"/>
  <rect x="202" y="220" width="3" height="30" fill="#fbbf24" opacity="0.8"/>
  
  <!-- Bottom reinforcement -->
  <rect x="80" y="250" width="120" height="8" rx="4" fill="#1e40af" stroke="#1d4ed8" stroke-width="1"/>
  
  <!-- Fun school badge -->
  <circle cx="140" cy="200" r="15" fill="#fbbf24" stroke="#f59e0b" stroke-width="2"/>
  <text x="140" y="205" font-family="Arial, sans-serif" font-size="8" text-anchor="middle" fill="#1d4ed8" font-weight="bold">★</text>
</svg>