<svg width="60" height="60" viewBox="0 0 60 60" fill="none" xmlns="http://www.w3.org/2000/svg">
  <!-- Lock body -->
  <rect x="20" y="28" width="20" height="20" rx="3" fill="#374151" stroke="#1f2937" stroke-width="2"/>
  
  <!-- Lock shackle -->
  <path d="M25 28 L25 20 C25 16, 27 12, 30 12 C33 12, 35 16, 35 20 L35 28" stroke="#1f2937" stroke-width="3" fill="none"/>
  
  <!-- Keyhole -->
  <circle cx="30" cy="35" r="3" fill="#6b7280"/>
  <rect x="29" y="35" width="2" height="6" fill="#6b7280"/>
  
  <!-- Security features -->
  <circle cx="30" cy="35" r="1.5" fill="#1f2937"/>
  
  <!-- RFID blocking waves -->
  <g opacity="0.6">
    <circle cx="30" cy="38" r="8" fill="none" stroke="#ef4444" stroke-width="1" stroke-dasharray="2,2"/>
    <circle cx="30" cy="38" r="12" fill="none" stroke="#ef4444" stroke-width="1" stroke-dasharray="2,2"/>
    <circle cx="30" cy="38" r="16" fill="none" stroke="#ef4444" stroke-width="1" stroke-dasharray="2,2"/>
  </g>
  
  <!-- Security shield overlay -->
  <path d="M15 15 L22 12 L30 8 L38 12 L45 15 L45 25 C45 35, 38 42, 30 50 C22 42, 15 35, 15 25 Z" fill="none" stroke="#10b981" stroke-width="2" opacity="0.7"/>
  
  <!-- Check mark for security -->
  <path d="M25 22 L28 25 L35 18" stroke="#10b981" stroke-width="2" stroke-linecap="round" stroke-linejoin="round"/>
  
  <!-- Anti-theft zipper pulls -->
  <circle cx="18" cy="32" r="2" fill="#9ca3af"/>
  <circle cx="42" cy="32" r="2" fill="#9ca3af"/>
  
  <!-- Hidden pocket indicator -->
  <rect x="12" y="45" width="8" height="3" rx="1" fill="#6b7280" opacity="0.5"/>
  <text x="16" y="48" text-anchor="middle" font-size="3" fill="white">HIDDEN</text>
</svg>