<svg xmlns="http://www.w3.org/2000/svg" viewBox="0 0 280 320" width="280" height="320">
  <defs>
    <linearGradient id="sportsGradient" x1="0%" y1="0%" x2="100%" y2="100%">
      <stop offset="0%" style="stop-color:#dc2626;stop-opacity:1" />
      <stop offset="50%" style="stop-color:#b91c1c;stop-opacity:1" />
      <stop offset="100%" style="stop-color:#991b1b;stop-opacity:1" />
    </linearGradient>
  </defs>
  
  <!-- Main sports backpack body -->
  <rect x="70" y="60" width="140" height="200" rx="8" fill="url(#sportsGradient)" stroke="#000" stroke-width="2"/>
  
  <!-- Main compartment -->
  <rect x="80" y="70" width="120" height="160" rx="5" fill="#ef4444" stroke="#dc2626" stroke-width="1"/>
  
  <!-- Main zipper -->
  <rect x="75" y="65" width="130" height="3" fill="#6b7280"/>
  <circle cx="200" cy="66.5" r="3" fill="#9ca3af"/>
  
  <!-- Front sports pocket -->
  <rect x="90" y="100" width="100" height="70" rx="5" fill="#dc2626" stroke="#b91c1c" stroke-width="1"/>
  
  <!-- Ventilation mesh -->
  <rect x="95" y="110" width="90" height="50" rx="3" fill="#333" stroke="#111" stroke-width="1" opacity="0.6"/>
  
  <!-- Mesh pattern -->
  <g opacity="0.4">
    <line x1="100" y1="115" x2="180" y2="115" stroke="#666" stroke-width="0.5"/>
    <line x1="100" y1="125" x2="180" y2="125" stroke="#666" stroke-width="0.5"/>
    <line x1="100" y1="135" x2="180" y2="135" stroke="#666" stroke-width="0.5"/>
    <line x1="100" y1="145" x2="180" y2="145" stroke="#666" stroke-width="0.5"/>
    <line x1="100" y1="155" x2="180" y2="155" stroke="#666" stroke-width="0.5"/>
    
    <line x1="110" y1="110" x2="110" y2="160" stroke="#666" stroke-width="0.5"/>
    <line x1="125" y1="110" x2="125" y2="160" stroke="#666" stroke-width="0.5"/>
    <line x1="140" y1="110" x2="140" y2="160" stroke="#666" stroke-width="0.5"/>
    <line x1="155" y1="110" x2="155" y2="160" stroke="#666" stroke-width="0.5"/>
    <line x1="170" y1="110" x2="170" y2="160" stroke="#666" stroke-width="0.5"/>
  </g>
  
  <!-- Side water bottle holders -->
  <ellipse cx="55" cy="150" rx="12" ry="25" fill="#333" stroke="#111" stroke-width="1"/>
  <ellipse cx="225" cy="150" rx="12" ry="25" fill="#333" stroke="#111" stroke-width="1"/>
  
  <!-- Elastic bands on bottle holders -->
  <rect x="50" y="140" width="10" height="3" fill="#666"/>
  <rect x="220" y="140" width="10" height="3" fill="#666"/>
  
  <!-- Sports equipment attachment -->
  <circle cx="90" cy="200" r="4" fill="#6b7280" stroke="#4b5563" stroke-width="1"/>
  <circle cx="190" cy="200" r="4" fill="#6b7280" stroke="#4b5563" stroke-width="1"/>
  
  <!-- Bungee cord system -->
  <path d="M90 200 Q140 190 190 200" fill="none" stroke="#fbbf24" stroke-width="2"/>
  <path d="M90 210 Q140 220 190 210" fill="none" stroke="#fbbf24" stroke-width="2"/>
  
  <!-- Athletic shoulder straps -->
  <path d="M60 90 Q40 80 30 100 L30 150 Q30 170 40 160 L60 150" fill="#4b5563" stroke="#374151" stroke-width="1"/>
  <path d="M220 90 Q240 80 250 100 L250 150 Q250 170 240 160 L220 150" fill="#4b5563" stroke="#374151" stroke-width="1"/>
  
  <!-- Breathable strap padding -->
  <rect x="35" y="115" width="8" height="20" rx="4" fill="#6b7280"/>
  <rect x="237" y="115" width="8" height="20" rx="4" fill="#6b7280"/>
  
  <!-- Perforations in padding -->
  <circle cx="39" cy="120" r="1" fill="#374151"/>
  <circle cx="39" cy="130" r="1" fill="#374151"/>
  <circle cx="241" cy="120" r="1" fill="#374151"/>
  <circle cx="241" cy="130" r="1" fill="#374151"/>
  
  <!-- Top handle -->
  <rect x="125" y="45" width="30" height="8" rx="4" fill="#4b5563" stroke="#374151" stroke-width="1"/>
  
  <!-- Shoe compartment -->
  <rect x="85" y="240" width="110" height="18" rx="4" fill="#b91c1c" stroke="#991b1b" stroke-width="1"/>
  <rect x="90" y="245" width="100" height="3" fill="#6b7280"/>
  
  <!-- Reflective strips for safety -->
  <rect x="75" y="220" width="3" height="25" fill="#fbbf24" opacity="0.9"/>
  <rect x="202" y="220" width="3" height="25" fill="#fbbf24" opacity="0.9"/>
  
  <!-- Sports brand logo area -->
  <circle cx="140" cy="180" r="12" fill="#fff" stroke="#dc2626" stroke-width="2"/>
  <text x="140" y="185" font-family="Arial, sans-serif" font-size="8" text-anchor="middle" fill="#dc2626" font-weight="bold">SPORT</text>
  
  <!-- Compression straps -->
  <rect x="60" y="180" width="4" height="40" rx="1" fill="#4b5563" stroke="#374151" stroke-width="1"/>
  <rect x="216" y="180" width="4" height="40" rx="1" fill="#4b5563" stroke="#374151" stroke-width="1"/>
</svg>