<svg width="80" height="80" viewBox="0 0 80 80" fill="none" xmlns="http://www.w3.org/2000/svg">
  <!-- Sports backpack body -->
  <rect x="20" y="20" width="40" height="42" rx="3" fill="#1d4ed8" stroke="#1e40af" stroke-width="2"/>
  
  <!-- Main compartment -->
  <rect x="23" y="23" width="34" height="28" rx="2" fill="#3b82f6" stroke="#1d4ed8" stroke-width="1"/>
  
  <!-- Shoe compartment -->
  <rect x="23" y="53" width="34" height="7" rx="2" fill="#3b82f6" stroke="#1d4ed8" stroke-width="1"/>
  
  <!-- Ventilation holes -->
  <circle cx="26" cy="56" r="1" fill="#1e40af"/>
  <circle cx="30" cy="56" r="1" fill="#1e40af"/>
  <circle cx="34" cy="56" r="1" fill="#1e40af"/>
  <circle cx="38" cy="56" r="1" fill="#1e40af"/>
  <circle cx="42" cy="56" r="1" fill="#1e40af"/>
  <circle cx="46" cy="56" r="1" fill="#1e40af"/>
  <circle cx="50" cy="56" r="1" fill="#1e40af"/>
  <circle cx="54" cy="56" r="1" fill="#1e40af"/>
  
  <!-- Side water bottle holder -->
  <ellipse cx="65" cy="38" rx="3" ry="10" fill="#3b82f6" stroke="#1d4ed8" stroke-width="1"/>
  <rect x="63" y="32" width="4" height="12" rx="2" fill="#60a5fa"/>
  <circle cx="65" cy="30" r="1.5" fill="#93c5fd"/>
  
  <!-- Side mesh pocket -->
  <ellipse cx="15" cy="38" rx="3" ry="10" fill="#6b7280" stroke="#4b5563" stroke-width="1"/>
  <!-- Mesh pattern -->
  <line x1="13" y1="32" x2="17" y2="44" stroke="#9ca3af" stroke-width="0.5"/>
  <line x1="15" y1="32" x2="19" y2="44" stroke="#9ca3af" stroke-width="0.5"/>
  <line x1="12" y1="35" x2="18" y2="35" stroke="#9ca3af" stroke-width="0.5"/>
  <line x1="12" y1="38" x2="18" y2="38" stroke="#9ca3af" stroke-width="0.5"/>
  <line x1="12" y1="41" x2="18" y2="41" stroke="#9ca3af" stroke-width="0.5"/>
  
  <!-- Sports equipment -->
  <!-- Tennis racket handle -->
  <rect x="14" y="30" width="2" height="8" fill="#7c2d12"/>
  
  <!-- Zippers -->
  <line x1="25" y1="37" x2="55" y2="37" stroke="#9ca3af" stroke-width="1.5"/>
  <circle cx="54" cy="37" r="1.5" fill="#9ca3af"/>
  
  <line x1="25" y1="57" x2="55" y2="57" stroke="#9ca3af" stroke-width="1.5"/>
  <circle cx="54" cy="57" r="1.5" fill="#9ca3af"/>
  
  <!-- Handle -->
  <path d="M35 20 Q35 15 40 15 Q45 15 45 20" stroke="#1e40af" stroke-width="3" fill="none"/>
  
  <!-- Shoulder straps -->
  <path d="M25 25 Q12 20 15 8 Q19 5 25 15" stroke="#1e40af" stroke-width="2" fill="none"/>
  <path d="M55 25 Q68 20 65 8 Q61 5 55 15" stroke="#1e40af" stroke-width="2" fill="none"/>
  
  <!-- Chest strap -->
  <line x1="20" y1="30" x2="60" y2="30" stroke="#1e40af" stroke-width="1.5"/>
  <rect x="38" y="28" width="4" height="4" rx="1" fill="#374151"/>
  
  <!-- Sports logo/brand -->
  <circle cx="40" cy="30" r="4" fill="#fbbf24"/>
  <path d="M37 28 L40 32 L43 28 Z" fill="#1d4ed8"/>
  
  <!-- Reflective strips -->
  <rect x="22" y="40" width="2" height="8" fill="#fbbf24"/>
  <rect x="56" y="40" width="2" height="8" fill="#fbbf24"/>
  
  <!-- Ball compartment indicator -->
  <circle cx="45" cy="45" r="3" fill="#f97316" stroke="#ea580c" stroke-width="1"/>
</svg>