<svg xmlns="http://www.w3.org/2000/svg" viewBox="0 0 800 600">
  <defs>
    <linearGradient id="supplyGradient" x1="0%" y1="0%" x2="100%" y2="100%">
      <stop offset="0%" style="stop-color:#6c5ce7;stop-opacity:1" />
      <stop offset="100%" style="stop-color:#a29bfe;stop-opacity:1" />
    </linearGradient>
    <linearGradient id="nodeGradient" x1="0%" y1="0%" x2="100%" y2="100%">
      <stop offset="0%" style="stop-color:#74b9ff;stop-opacity:1" />
      <stop offset="100%" style="stop-color:#0984e3;stop-opacity:1" />
    </linearGradient>
    <filter id="shadow" x="-50%" y="-50%" width="200%" height="200%">
      <feDropShadow dx="2" dy="2" stdDeviation="3" flood-color="rgba(0,0,0,0.3)"/>
    </filter>
  </defs>
  
  <!-- Background -->
  <rect width="800" height="600" fill="url(#supplyGradient)"/>
  
  <!-- Title -->
  <text x="400" y="40" text-anchor="middle" font-family="Arial, sans-serif" font-size="28" font-weight="bold" fill="white">Supply Chain Management</text>
  <text x="400" y="65" text-anchor="middle" font-family="Arial, sans-serif" font-size="16" fill="white">End-to-End Backpack Manufacturing Process</text>
  
  <!-- Supply Chain Flow -->
  <!-- Raw Materials -->
  <g transform="translate(100, 150)">
    <circle cx="0" cy="0" r="30" fill="url(#nodeGradient)" filter="url(#shadow)"/>
    <rect x="-15" y="-10" width="30" height="20" fill="white" rx="3"/>
    <rect x="-12" y="-7" width="8" height="14" fill="#e17055" rx="1"/>
    <rect x="-2" y="-7" width="8" height="14" fill="#00b894" rx="1"/>
    <rect x="8" y="-7" width="8" height="14" fill="#fdcb6e" rx="1"/>
    
    <text x="0" y="50" text-anchor="middle" font-family="Arial, sans-serif" font-size="12" font-weight="bold" fill="white">Raw Materials</text>
    <text x="0" y="65" text-anchor="middle" font-family="Arial, sans-serif" font-size="10" fill="white">Fabric, Zippers</text>
    <text x="0" y="78" text-anchor="middle" font-family="Arial, sans-serif" font-size="10" fill="white">Hardware</text>
  </g>
  
  <!-- Arrow 1 -->
  <path d="M 140 150 L 190 150" stroke="white" stroke-width="3" marker-end="url(#arrowhead)"/>
  
  <!-- Suppliers -->
  <g transform="translate(230, 150)">
    <circle cx="0" cy="0" r="30" fill="url(#nodeGradient)" filter="url(#shadow)"/>
    <rect x="-12" y="-12" width="24" height="18" fill="white" rx="2"/>
    <rect x="-10" y="-10" width="20" height="6" fill="#636e72" rx="1"/>
    <rect x="-8" y="-2" width="16" height="4" fill="#74b9ff" rx="1"/>
    <rect x="-6" y="4" width="12" height="4" fill="#74b9ff" rx="1"/>
    
    <text x="0" y="50" text-anchor="middle" font-family="Arial, sans-serif" font-size="12" font-weight="bold" fill="white">Suppliers</text>
    <text x="0" y="65" text-anchor="middle" font-family="Arial, sans-serif" font-size="10" fill="white">Global Network</text>
    <text x="0" y="78" text-anchor="middle" font-family="Arial, sans-serif" font-size="10" fill="white">Quality Certified</text>
  </g>
  
  <!-- Arrow 2 -->
  <path d="M 270 150 L 320 150" stroke="white" stroke-width="3" marker-end="url(#arrowhead)"/>
  
  <!-- Manufacturing -->
  <g transform="translate(360, 150)">
    <circle cx="0" cy="0" r="30" fill="url(#nodeGradient)" filter="url(#shadow)"/>
    <rect x="-15" y="-8" width="30" height="16" fill="white" rx="2"/>
    <rect x="-12" y="-5" width="24" height="10" fill="#636e72" rx="1"/>
    <rect x="-10" y="-3" width="6" height="6" fill="#74b9ff" rx="1"/>
    <rect x="-2" y="-3" width="6" height="6" fill="#74b9ff" rx="1"/>
    <rect x="6" y="-3" width="6" height="6" fill="#74b9ff" rx="1"/>
    
    <text x="0" y="50" text-anchor="middle" font-family="Arial, sans-serif" font-size="12" font-weight="bold" fill="white">Manufacturing</text>
    <text x="0" y="65" text-anchor="middle" font-family="Arial, sans-serif" font-size="10" fill="white">Automated</text>
    <text x="0" y="78" text-anchor="middle" font-family="Arial, sans-serif" font-size="10" fill="white">Production</text>
  </g>
  
  <!-- Arrow 3 -->
  <path d="M 400 150 L 450 150" stroke="white" stroke-width="3" marker-end="url(#arrowhead)"/>
  
  <!-- Quality Control -->
  <g transform="translate(490, 150)">
    <circle cx="0" cy="0" r="30" fill="url(#nodeGradient)" filter="url(#shadow)"/>
    <circle cx="0" cy="0" r="12" fill="white"/>
    <path d="M -6 -2 L -2 2 L 6 -6" stroke="#00b894" stroke-width="3" fill="none"/>
    
    <text x="0" y="50" text-anchor="middle" font-family="Arial, sans-serif" font-size="12" font-weight="bold" fill="white">Quality Control</text>
    <text x="0" y="65" text-anchor="middle" font-family="Arial, sans-serif" font-size="10" fill="white">ISO Standards</text>
    <text x="0" y="78" text-anchor="middle" font-family="Arial, sans-serif" font-size="10" fill="white">Testing</text>
  </g>
  
  <!-- Arrow 4 -->
  <path d="M 530 150 L 580 150" stroke="white" stroke-width="3" marker-end="url(#arrowhead)"/>
  
  <!-- Distribution -->
  <g transform="translate(620, 150)">
    <circle cx="0" cy="0" r="30" fill="url(#nodeGradient)" filter="url(#shadow)"/>
    <rect x="-12" y="-8" width="24" height="16" fill="white" rx="2"/>
    <rect x="-10" y="-6" width="20" height="4" fill="#636e72" rx="1"/>
    <circle cx="-6" cy="2" r="3" fill="#2d3436"/>
    <circle cx="6" cy="2" r="3" fill="#2d3436"/>
    
    <text x="0" y="50" text-anchor="middle" font-family="Arial, sans-serif" font-size="12" font-weight="bold" fill="white">Distribution</text>
    <text x="0" y="65" text-anchor="middle" font-family="Arial, sans-serif" font-size="10" fill="white">Global Logistics</text>
    <text x="0" y="78" text-anchor="middle" font-family="Arial, sans-serif" font-size="10" fill="white">Fast Delivery</text>
  </g>
  
  <!-- Arrow marker definition -->
  <defs>
    <marker id="arrowhead" markerWidth="10" markerHeight="7" refX="9" refY="3.5" orient="auto">
      <polygon points="0 0, 10 3.5, 0 7" fill="white"/>
    </marker>
  </defs>
  
  <!-- Supply Chain Metrics -->
  <g transform="translate(400, 280)">
    <rect x="-350" y="0" width="700" height="200" fill="rgba(255,255,255,0.95)" rx="15"/>
    <text x="0" y="30" text-anchor="middle" font-family="Arial, sans-serif" font-size="20" font-weight="bold" fill="#2d3436">Supply Chain Performance Metrics</text>
    
    <!-- Metric 1: Lead Time -->
    <g transform="translate(-250, 80)">
      <rect x="-40" y="-25" width="80" height="50" fill="#74b9ff" rx="8" filter="url(#shadow)"/>
      <text x="0" y="-5" text-anchor="middle" font-family="Arial, sans-serif" font-size="16" font-weight="bold" fill="white">15 Days</text>
      <text x="0" y="10" text-anchor="middle" font-family="Arial, sans-serif" font-size="10" fill="white">Average Lead Time</text>
      
      <text x="0" y="45" text-anchor="middle" font-family="Arial, sans-serif" font-size="12" font-weight="bold" fill="#2d3436">Lead Time</text>
      <text x="0" y="60" text-anchor="middle" font-family="Arial, sans-serif" font-size="10" fill="#636e72">From order to delivery</text>
    </g>
    
    <!-- Metric 2: On-Time Delivery -->
    <g transform="translate(-80, 80)">
      <rect x="-40" y="-25" width="80" height="50" fill="#00b894" rx="8" filter="url(#shadow)"/>
      <text x="0" y="-5" text-anchor="middle" font-family="Arial, sans-serif" font-size="16" font-weight="bold" fill="white">98.5%</text>
      <text x="0" y="10" text-anchor="middle" font-family="Arial, sans-serif" font-size="10" fill="white">On-Time Rate</text>
      
      <text x="0" y="45" text-anchor="middle" font-family="Arial, sans-serif" font-size="12" font-weight="bold" fill="#2d3436">Delivery Performance</text>
      <text x="0" y="60" text-anchor="middle" font-family="Arial, sans-serif" font-size="10" fill="#636e72">Punctual deliveries</text>
    </g>
    
    <!-- Metric 3: Quality Rate -->
    <g transform="translate(80, 80)">
      <rect x="-40" y="-25" width="80" height="50" fill="#fdcb6e" rx="8" filter="url(#shadow)"/>
      <text x="0" y="-5" text-anchor="middle" font-family="Arial, sans-serif" font-size="16" font-weight="bold" fill="white">99.2%</text>
      <text x="0" y="10" text-anchor="middle" font-family="Arial, sans-serif" font-size="10" fill="white">Quality Pass Rate</text>
      
      <text x="0" y="45" text-anchor="middle" font-family="Arial, sans-serif" font-size="12" font-weight="bold" fill="#2d3436">Quality Assurance</text>
      <text x="0" y="60" text-anchor="middle" font-family="Arial, sans-serif" font-size="10" fill="#636e72">First-pass quality</text>
    </g>
    
    <!-- Metric 4: Cost Efficiency -->
    <g transform="translate(250, 80)">
      <rect x="-40" y="-25" width="80" height="50" fill="#e17055" rx="8" filter="url(#shadow)"/>
      <text x="0" y="-5" text-anchor="middle" font-family="Arial, sans-serif" font-size="16" font-weight="bold" fill="white">-12%</text>
      <text x="0" y="10" text-anchor="middle" font-family="Arial, sans-serif" font-size="10" fill="white">Cost Reduction</text>
      
      <text x="0" y="45" text-anchor="middle" font-family="Arial, sans-serif" font-size="12" font-weight="bold" fill="#2d3436">Cost Optimization</text>
      <text x="0" y="60" text-anchor="middle" font-family="Arial, sans-serif" font-size="10" fill="#636e72">Year-over-year savings</text>
    </g>
    
    <!-- Supply Chain Benefits -->
    <g transform="translate(0, 140)">
      <text x="0" y="0" text-anchor="middle" font-family="Arial, sans-serif" font-size="16" font-weight="bold" fill="#2d3436">Supply Chain Advantages</text>
      
      <g transform="translate(-200, 25)">
        <circle cx="0" cy="0" r="5" fill="#00b894"/>
        <text x="15" y="5" font-family="Arial, sans-serif" font-size="12" fill="#2d3436">Real-time inventory tracking</text>
      </g>
      
      <g transform="translate(-200, 45)">
        <circle cx="0" cy="0" r="5" fill="#74b9ff"/>
        <text x="15" y="5" font-family="Arial, sans-serif" font-size="12" fill="#2d3436">Automated demand forecasting</text>
      </g>
      
      <g transform="translate(50, 25)">
        <circle cx="0" cy="0" r="5" fill="#fdcb6e"/>
        <text x="15" y="5" font-family="Arial, sans-serif" font-size="12" fill="#2d3436">Supplier performance monitoring</text>
      </g>
      
      <g transform="translate(50, 45)">
        <circle cx="0" cy="0" r="5" fill="#e17055"/>
        <text x="15" y="5" font-family="Arial, sans-serif" font-size="12" fill="#2d3436">Risk management & contingency planning</text>
      </g>
    </g>
  </g>
  
  <!-- Technology Integration Banner -->
  <g transform="translate(400, 520)">
    <rect x="-350" y="0" width="700" height="60" fill="rgba(45,52,54,0.9)" rx="10"/>
    <text x="0" y="25" text-anchor="middle" font-family="Arial, sans-serif" font-size="18" font-weight="bold" fill="white">Technology-Driven Supply Chain</text>
    <text x="0" y="45" text-anchor="middle" font-family="Arial, sans-serif" font-size="14" fill="white">IoT Sensors • AI Analytics • Blockchain Traceability • Cloud Integration • Predictive Maintenance</text>
  </g>
</svg>