<svg xmlns="http://www.w3.org/2000/svg" viewBox="0 0 400 300" width="400" height="300">
  <defs>
    <linearGradient id="greenGradient" x1="0%" y1="0%" x2="100%" y2="100%">
      <stop offset="0%" style="stop-color:#4CAF50;stop-opacity:1" />
      <stop offset="100%" style="stop-color:#2E7D32;stop-opacity:1" />
    </linearGradient>
    <linearGradient id="factoryGradient" x1="0%" y1="0%" x2="100%" y2="100%">
      <stop offset="0%" style="stop-color:#666;stop-opacity:1" />
      <stop offset="100%" style="stop-color:#444;stop-opacity:1" />
    </linearGradient>
  </defs>
  
  <!-- Background -->
  <rect width="400" height="300" fill="#f0f8f0"/>
  
  <!-- Factory building -->
  <rect x="50" y="150" width="120" height="80" fill="url(#factoryGradient)" stroke="#333" stroke-width="2"/>
  <polygon points="50,150 110,120 170,150" fill="#555" stroke="#333" stroke-width="2"/>
  
  <!-- Factory windows -->
  <rect x="70" y="170" width="15" height="15" fill="#87CEEB" stroke="#333" stroke-width="1"/>
  <rect x="100" y="170" width="15" height="15" fill="#87CEEB" stroke="#333" stroke-width="1"/>
  <rect x="130" y="170" width="15" height="15" fill="#87CEEB" stroke="#333" stroke-width="1"/>
  
  <!-- Factory door -->
  <rect x="90" y="200" width="20" height="30" fill="#8B4513" stroke="#333" stroke-width="1"/>
  
  <!-- Smokestacks with green emissions -->
  <rect x="140" y="100" width="8" height="50" fill="#666"/>
  <rect x="155" y="110" width="8" height="40" fill="#666"/>
  
  <!-- Green smoke/steam -->
  <ellipse cx="144" cy="90" rx="6" ry="8" fill="#4CAF50" opacity="0.6"/>
  <ellipse cx="159" cy="100" rx="5" ry="6" fill="#4CAF50" opacity="0.6"/>
  <ellipse cx="148" cy="80" rx="4" ry="5" fill="#4CAF50" opacity="0.4"/>
  
  <!-- Recycling symbol -->
  <g transform="translate(200, 180)">
    <circle cx="0" cy="0" r="30" fill="url(#greenGradient)" opacity="0.9"/>
    <path d="M-15 -8 L-5 -8 L0 -15 L5 -8 L15 -8 L8 0 L15 8 L5 8 L0 15 L-5 8 L-15 8 L-8 0 Z" fill="white"/>
    <text x="0" y="5" text-anchor="middle" font-family="Arial, sans-serif" font-size="12" fill="white" font-weight="bold">♻</text>
  </g>
  
  <!-- Solar panels -->
  <rect x="250" y="140" width="40" height="20" fill="#1565C0" stroke="#0D47A1" stroke-width="1"/>
  <rect x="300" y="140" width="40" height="20" fill="#1565C0" stroke="#0D47A1" stroke-width="1"/>
  <line x1="255" y1="145" x2="285" y2="145" stroke="#0D47A1" stroke-width="0.5"/>
  <line x1="255" y1="155" x2="285" y2="155" stroke="#0D47A1" stroke-width="0.5"/>
  <line x1="305" y1="145" x2="335" y2="145" stroke="#0D47A1" stroke-width="0.5"/>
  <line x1="305" y1="155" x2="335" y2="155" stroke="#0D47A1" stroke-width="0.5"/>
  
  <!-- Trees -->
  <ellipse cx="320" cy="200" rx="15" ry="20" fill="#4CAF50"/>
  <rect x="317" y="210" width="6" height="15" fill="#8B4513"/>
  <ellipse cx="350" cy="190" rx="12" ry="18" fill="#4CAF50"/>
  <rect x="347" y="200" width="6" height="15" fill="#8B4513"/>
  
  <!-- Backpack with eco-friendly materials -->
  <path d="M80 50 Q80 40 90 40 L130 40 Q140 40 140 50 L140 120 Q140 130 130 130 L90 130 Q80 130 80 120 Z" fill="url(#greenGradient)" stroke="#2E7D32" stroke-width="2"/>
  
  <!-- Eco-friendly material indicators -->
  <circle cx="90" cy="50" r="3" fill="#81C784"/>
  <circle cx="130" cy="50" r="3" fill="#81C784"/>
  <circle cx="90" cy="120" r="3" fill="#81C784"/>
  <circle cx="130" cy="120" r="3" fill="#81C784"/>
  
  <!-- Organic cotton label -->
  <rect x="95" y="70" width="30" height="15" fill="white" stroke="#4CAF50" stroke-width="1" rx="2"/>
  <text x="110" y="80" text-anchor="middle" font-family="Arial, sans-serif" font-size="8" fill="#4CAF50" font-weight="bold">ECO</text>
  
  <!-- Title -->
  <text x="200" y="30" text-anchor="middle" font-family="Arial, sans-serif" font-size="18" font-weight="bold" fill="#2E7D32">Sustainable Manufacturing</text>
  
  <!-- Features labels -->
  <text x="30" y="280" font-family="Arial, sans-serif" font-size="11" fill="#4CAF50">• Recycled Materials</text>
  <text x="150" y="280" font-family="Arial, sans-serif" font-size="11" fill="#4CAF50">• Solar Powered</text>
  <text x="270" y="280" font-family="Arial, sans-serif" font-size="11" fill="#4CAF50">• Zero Waste</text>
</svg>