<svg xmlns="http://www.w3.org/2000/svg" viewBox="0 0 100 100" width="100" height="100">
  <defs>
    <linearGradient id="sustainabilityGradient" x1="0%" y1="0%" x2="100%" y2="100%">
      <stop offset="0%" style="stop-color:#22c55e;stop-opacity:1" />
      <stop offset="100%" style="stop-color:#16a34a;stop-opacity:1" />
    </linearGradient>
  </defs>
  
  <!-- Earth circle -->
  <circle cx="50" cy="50" r="30" fill="url(#sustainabilityGradient)" stroke="#15803d" stroke-width="2"/>
  
  <!-- Continents -->
  <path d="M35 35 Q40 30 45 35 Q50 40 45 45 Q40 50 35 45 Q30 40 35 35" fill="#166534" opacity="0.8"/>
  <path d="M55 40 Q65 35 70 45 Q65 55 55 50 Q50 45 55 40" fill="#166534" opacity="0.8"/>
  <path d="M40 60 Q50 55 60 60 Q55 70 45 65 Q35 65 40 60" fill="#166534" opacity="0.8"/>
  
  <!-- Recycling arrows -->
  <g transform="translate(50,50)">
    <!-- Arrow 1 -->
    <path d="M-20,-15 Q-25,-20 -15,-25 Q-5,-20 -10,-15" fill="none" stroke="#fff" stroke-width="2" stroke-linecap="round"/>
    <polygon points="-8,-13 -12,-17 -8,-17" fill="#fff"/>
    
    <!-- Arrow 2 -->
    <path d="M15,-20 Q25,-15 20,-5 Q15,5 5,0" fill="none" stroke="#fff" stroke-width="2" stroke-linecap="round"/>
    <polygon points="7,2 3,-2 7,-2" fill="#fff"/>
    
    <!-- Arrow 3 -->
    <path d="M5,15 Q-5,25 -15,15 Q-25,5 -15,10" fill="none" stroke="#fff" stroke-width="2" stroke-linecap="round"/>
    <polygon points="-17,12 -13,8 -13,12" fill="#fff"/>
  </g>
  
  <!-- Leaves around the earth -->
  <path d="M20 25 Q15 20 20 15 Q25 20 20 25" fill="#4ade80" stroke="#22c55e" stroke-width="1"/>
  <path d="M80 30 Q85 25 90 30 Q85 35 80 30" fill="#4ade80" stroke="#22c55e" stroke-width="1"/>
  <path d="M25 75 Q20 80 15 75 Q20 70 25 75" fill="#4ade80" stroke="#22c55e" stroke-width="1"/>
  <path d="M85 70 Q90 75 85 80 Q80 75 85 70" fill="#4ade80" stroke="#22c55e" stroke-width="1"/>
  
  <!-- Small eco symbols -->
  <circle cx="15" cy="50" r="3" fill="#84cc16" stroke="#65a30d" stroke-width="1"/>
  <text x="15" y="53" font-family="Arial, sans-serif" font-size="4" text-anchor="middle" fill="#fff">♻</text>
  
  <circle cx="85" cy="50" r="3" fill="#84cc16" stroke="#65a30d" stroke-width="1"/>
  <text x="85" y="53" font-family="Arial, sans-serif" font-size="4" text-anchor="middle" fill="#fff">🌱</text>
</svg>