<svg xmlns="http://www.w3.org/2000/svg" viewBox="0 0 400 300">
  <defs>
    <linearGradient id="tacticalGrad" x1="0%" y1="0%" x2="100%" y2="100%">
      <stop offset="0%" style="stop-color:#2c3e50;stop-opacity:1" />
      <stop offset="100%" style="stop-color:#34495e;stop-opacity:1" />
    </linearGradient>
  </defs>
  
  <!-- Background -->
  <rect width="400" height="300" fill="#f8f9fa"/>
  
  <!-- Tactical Backpack -->
  <g transform="translate(200,150)">
    <!-- Main body -->
    <rect x="-60" y="-80" width="120" height="140" rx="8" fill="url(#tacticalGrad)"/>
    
    <!-- MOLLE webbing -->
    <g stroke="#1a252f" stroke-width="2" fill="none">
      <line x1="-45" y1="-60" x2="45" y2="-60"/>
      <line x1="-45" y1="-40" x2="45" y2="-40"/>
      <line x1="-45" y1="-20" x2="45" y2="-20"/>
      <line x1="-45" y1="0" x2="45" y2="0"/>
      <line x1="-45" y1="20" x2="45" y2="20"/>
      <line x1="-30" y1="-70" x2="-30" y2="30"/>
      <line x1="-10" y1="-70" x2="-10" y2="30"/>
      <line x1="10" y1="-70" x2="10" y2="30"/>
      <line x1="30" y1="-70" x2="30" y2="30"/>
    </g>
    
    <!-- Side pockets -->
    <rect x="-80" y="-40" width="15" height="60" rx="4" fill="#34495e"/>
    <rect x="65" y="-40" width="15" height="60" rx="4" fill="#34495e"/>
    
    <!-- Top handle -->
    <rect x="-20" y="-90" width="40" height="8" rx="4" fill="#1a252f"/>
    
    <!-- Straps -->
    <rect x="-70" y="-70" width="8" height="120" rx="4" fill="#1a252f"/>
    <rect x="62" y="-70" width="8" height="120" rx="4" fill="#1a252f"/>
    
    <!-- Buckles -->
    <rect x="-25" y="-65" width="10" height="6" rx="2" fill="#7f8c8d"/>
    <rect x="15" y="-65" width="10" height="6" rx="2" fill="#7f8c8d"/>
    <rect x="-25" y="45" width="10" height="6" rx="2" fill="#7f8c8d"/>
    <rect x="15" y="45" width="10" height="6" rx="2" fill="#7f8c8d"/>
  </g>
  
  <!-- Title -->
  <text x="200" y="280" text-anchor="middle" font-family="Arial, sans-serif" font-size="18" font-weight="bold" fill="#2c3e50">Tactical Backpacks</text>
</svg>