<svg xmlns="http://www.w3.org/2000/svg" viewBox="0 0 300 400" width="300" height="400">
  <defs>
    <linearGradient id="travelGradient" x1="0%" y1="0%" x2="100%" y2="100%">
      <stop offset="0%" style="stop-color:#2d4a3e;stop-opacity:1" />
      <stop offset="50%" style="stop-color:#1a2e23;stop-opacity:1" />
      <stop offset="100%" style="stop-color:#0f1a14;stop-opacity:1" />
    </linearGradient>
  </defs>
  
  <!-- Main travel backpack body -->
  <path d="M70 80 Q70 60 90 60 L210 60 Q230 60 230 80 L230 320 Q230 350 210 350 L90 350 Q70 350 70 320 Z" fill="url(#travelGradient)" stroke="#000" stroke-width="2"/>
  
  <!-- Top compartment -->
  <path d="M80 80 Q80 70 90 70 L210 70 Q220 70 220 80 L220 140 Q220 150 210 150 L90 150 Q80 150 80 140 Z" fill="#3a5a4a" stroke="#222" stroke-width="1"/>
  
  <!-- Main compartment zipper -->
  <rect x="75" y="65" width="150" height="4" fill="#888"/>
  <circle cx="220" cy="67" r="4" fill="#aaa"/>
  
  <!-- Side pockets -->
  <ellipse cx="60" cy="180" rx="18" ry="50" fill="#2a4a3a" stroke="#111" stroke-width="1"/>
  <ellipse cx="240" cy="180" rx="18" ry="50" fill="#2a4a3a" stroke="#111" stroke-width="1"/>
  
  <!-- Water bottle holder -->
  <ellipse cx="50" cy="250" rx="12" ry="30" fill="#333" stroke="#111" stroke-width="1"/>
  <rect x="44" y="235" width="12" height="4" fill="#666"/>
  
  <!-- External attachment points -->
  <circle cx="90" cy="200" r="3" fill="#666" stroke="#333" stroke-width="1"/>
  <circle cx="210" cy="200" r="3" fill="#666" stroke="#333" stroke-width="1"/>
  <circle cx="90" cy="280" r="3" fill="#666" stroke="#333" stroke-width="1"/>
  <circle cx="210" cy="280" r="3" fill="#666" stroke="#333" stroke-width="1"/>
  
  <!-- Hiking straps -->
  <path d="M60 120 Q40 110 30 130 L30 200 Q30 220 40 210 L60 200" fill="#555" stroke="#333" stroke-width="1"/>
  <path d="M240 120 Q260 110 270 130 L270 200 Q270 220 260 210 L240 200" fill="#555" stroke="#333" stroke-width="1"/>
  
  <!-- Chest strap -->
  <rect x="35" y="150" width="230" height="3" fill="#666" stroke="#444" stroke-width="1"/>
  <rect x="145" y="147" width="10" height="9" rx="2" fill="#888" stroke="#555" stroke-width="1"/>
  
  <!-- Hip belt -->
  <path d="M80 280 Q150 270 220 280" fill="none" stroke="#666" stroke-width="4"/>
  <rect x="75" y="278" width="15" height="8" rx="2" fill="#888" stroke="#555" stroke-width="1"/>
  <rect x="210" y="278" width="15" height="8" rx="2" fill="#888" stroke="#555" stroke-width="1"/>
  
  <!-- Top handle -->
  <path d="M130 45 Q150 35 170 45" fill="none" stroke="#555" stroke-width="6" stroke-linecap="round"/>
  
  <!-- Rain cover attachment -->
  <rect x="140" y="340" width="20" height="8" rx="4" fill="#444" stroke="#222" stroke-width="1"/>
  
  <!-- Reflective patches -->
  <rect x="85" y="320" width="20" height="3" fill="#ccc" opacity="0.8"/>
  <rect x="195" y="320" width="20" height="3" fill="#ccc" opacity="0.8"/>
</svg>