<svg width="80" height="80" viewBox="0 0 80 80" fill="none" xmlns="http://www.w3.org/2000/svg">
  <!-- Travel backpack body -->
  <rect x="18" y="20" width="44" height="45" rx="4" fill="#1f2937" stroke="#374151" stroke-width="2"/>
  
  <!-- Main compartment -->
  <rect x="21" y="23" width="38" height="30" rx="2" fill="#374151" stroke="#4b5563" stroke-width="1"/>
  
  <!-- Front pocket -->
  <rect x="23" y="55" width="34" height="8" rx="2" fill="#374151" stroke="#4b5563" stroke-width="1"/>
  
  <!-- Side pockets -->
  <ellipse cx="15" cy="40" rx="3" ry="8" fill="#374151" stroke="#4b5563" stroke-width="1"/>
  <ellipse cx="65" cy="40" rx="3" ry="8" fill="#374151" stroke="#4b5563" stroke-width="1"/>
  
  <!-- Water bottle -->
  <rect x="63" y="35" width="4" height="10" rx="2" fill="#3b82f6"/>
  <circle cx="65" cy="34" r="1.5" fill="#60a5fa"/>
  
  <!-- Zippers -->
  <line x1="25" y1="59" x2="55" y2="59" stroke="#9ca3af" stroke-width="1.5"/>
  <circle cx="54" cy="59" r="1.5" fill="#9ca3af"/>
  
  <line x1="23" y1="38" x2="57" y2="38" stroke="#9ca3af" stroke-width="1.5"/>
  <circle cx="56" cy="38" r="1.5" fill="#9ca3af"/>
  
  <!-- Handle -->
  <path d="M35 20 Q35 15 40 15 Q45 15 45 20" stroke="#374151" stroke-width="3" fill="none"/>
  
  <!-- Shoulder straps -->
  <path d="M23 25 Q10 20 12 8 Q18 5 23 15" stroke="#374151" stroke-width="2" fill="none"/>
  <path d="M57 25 Q70 20 68 8 Q62 5 57 15" stroke="#374151" stroke-width="2" fill="none"/>
  
  <!-- Travel patches/stickers -->
  <circle cx="30" cy="30" r="3" fill="#ef4444"/>
  <text x="30" y="33" text-anchor="middle" font-size="6" fill="white">✈</text>
  
  <rect x="45" y="27" width="6" height="6" rx="1" fill="#10b981"/>
  <text x="48" y="32" text-anchor="middle" font-size="4" fill="white">★</text>
  
  <!-- Compression straps -->
  <line x1="18" y1="35" x2="62" y2="35" stroke="#6b7280" stroke-width="1"/>
  <line x1="18" y1="50" x2="62" y2="50" stroke="#6b7280" stroke-width="1"/>
</svg>