<svg xmlns="http://www.w3.org/2000/svg" viewBox="0 0 100 100">
  <defs>
    <linearGradient id="visionGrad" x1="0%" y1="0%" x2="100%" y2="100%">
      <stop offset="0%" style="stop-color:#3498db;stop-opacity:1" />
      <stop offset="100%" style="stop-color:#2980b9;stop-opacity:1" />
    </linearGradient>
  </defs>
  
  <!-- Background circle -->
  <circle cx="50" cy="50" r="45" fill="url(#visionGrad)"/>
  
  <!-- Eye/Vision icon -->
  <g fill="white">
    <!-- Eye shape -->
    <ellipse cx="50" cy="50" rx="25" ry="15" fill="white"/>
    
    <!-- Iris -->
    <circle cx="50" cy="50" r="10" fill="#3498db"/>
    
    <!-- Pupil -->
    <circle cx="50" cy="50" r="6" fill="#2c3e50"/>
    
    <!-- Light reflection -->
    <circle cx="47" cy="47" r="2" fill="white"/>
    
    <!-- Eyelashes/rays -->
    <g stroke="white" stroke-width="2" stroke-linecap="round">
      <line x1="30" y1="35" x2="25" y2="30"/>
      <line x1="40" y1="30" x2="38" y2="25"/>
      <line x1="50" y1="28" x2="50" y2="23"/>
      <line x1="60" y1="30" x2="62" y2="25"/>
      <line x1="70" y1="35" x2="75" y2="30"/>
      
      <line x1="30" y1="65" x2="25" y2="70"/>
      <line x1="40" y1="70" x2="38" y2="75"/>
      <line x1="50" y1="72" x2="50" y2="77"/>
      <line x1="60" y1="70" x2="62" y2="75"/>
      <line x1="70" y1="65" x2="75" y2="70"/>
    </g>
  </g>
</svg>